<?xml version="1.0" encoding="UTF-8" standalone="no"?>
<!-- Created with Inkscape (http://www.inkscape.org/) -->

<svg
   xmlns:dc="http://purl.org/dc/elements/1.1/"
   xmlns:cc="http://creativecommons.org/ns#"
   xmlns:rdf="http://www.w3.org/1999/02/22-rdf-syntax-ns#"
   xmlns:svg="http://www.w3.org/2000/svg"
   xmlns="http://www.w3.org/2000/svg"
   xmlns:xlink="http://www.w3.org/1999/xlink"
   xmlns:sodipodi="http://sodipodi.sourceforge.net/DTD/sodipodi-0.dtd"
   xmlns:inkscape="http://www.inkscape.org/namespaces/inkscape"
   width="300mm"
   height="300mm"
   viewBox="0 0 1062.9921 1062.9921"
   id="svg2"
   version="1.1"
   inkscape:version="0.91 r13725"
   sodipodi:docname="404.svg">
  <defs
     id="defs4" />
  <sodipodi:namedview
     id="base"
     pagecolor="#ffffff"
     bordercolor="#666666"
     borderopacity="1.0"
     inkscape:pageopacity="0.0"
     inkscape:pageshadow="2"
     inkscape:zoom="0.79496455"
     inkscape:cx="457.38205"
     inkscape:cy="605.42043"
     inkscape:document-units="px"
     inkscape:current-layer="layer1"
     showgrid="true"
     borderlayer="false"
     showguides="true"
     inkscape:window-width="1920"
     inkscape:window-height="1017"
     inkscape:window-x="-8"
     inkscape:window-y="-8"
     inkscape:window-maximized="1"
     showborder="false">
    <inkscape:grid
       type="xygrid"
       id="grid4174"
       dotted="true"
       spacingx="0.50000002"
       spacingy="0.50000002" />
  </sodipodi:namedview>
  <metadata
     id="metadata7">
    <rdf:RDF>
      <cc:Work
         rdf:about="">
        <dc:format>image/svg+xml</dc:format>
        <dc:type
           rdf:resource="http://purl.org/dc/dcmitype/StillImage" />
        <dc:title />
      </cc:Work>
    </rdf:RDF>
  </metadata>
  <g
     inkscape:label="Layer 1"
     inkscape:groupmode="layer"
     id="layer1"
     transform="translate(0,10.629921)">
    <rect
       style="opacity:0.82399998;fill:#e6e6e6;fill-opacity:1;fill-rule:nonzero;stroke:none;stroke-width:1;stroke-miterlimit:4;stroke-dasharray:none;stroke-opacity:1"
       id="rect4136"
       width="1065.7142"
       height="1065.7142"
       x="0"
       y="-10.494998" />
    <text
       xml:space="preserve"
       style="font-style:normal;font-weight:normal;font-size:180px;line-height:125%;font-family:sans-serif;letter-spacing:0px;word-spacing:0px;writing-mode:lr-tb;fill:#24221c;fill-opacity:1;stroke:none;stroke-width:1px;stroke-linecap:butt;stroke-linejoin:miter;stroke-opacity:1"
       x="35.149246"
       y="210.29935"
       id="text4138"
       sodipodi:linespacing="125%"><tspan
         sodipodi:role="line"
         id="tspan4140"
         x="35.149246"
         y="210.29935"
         style="font-style:normal;font-variant:normal;font-weight:normal;font-stretch:extra-condensed;font-family:Algerian;-inkscape-font-specification:'Algerian Extra-Condensed';writing-mode:lr-tb">4</tspan></text>
    <text
       xml:space="preserve"
       style="font-style:italic;font-variant:normal;font-weight:normal;font-stretch:normal;font-size:90px;line-height:125%;font-family:sans-serif;-inkscape-font-specification:'sans-serif Italic';text-align:center;letter-spacing:0px;word-spacing:0px;text-anchor:middle;fill:#24221c;fill-opacity:1;stroke:none;stroke-width:1px;stroke-linecap:butt;stroke-linejoin:miter;stroke-opacity:1"
       x="508.36682"
       y="165.60242"
       id="text4142"
       sodipodi:linespacing="125%"><tspan
         sodipodi:role="line"
         x="508.36682"
         y="165.60242"
         id="tspan4146"
         style="font-style:italic;font-variant:normal;font-weight:normal;font-stretch:normal;font-size:60px;font-family:sans-serif;-inkscape-font-specification:'sans-serif Italic';fill:#24221c">:means client side error</tspan></text>
    <text
       xml:space="preserve"
       style="font-style:normal;font-weight:normal;font-size:70px;line-height:125%;font-family:sans-serif;letter-spacing:0px;word-spacing:0px;fill:#000000;fill-opacity:1;stroke:none;stroke-width:1px;stroke-linecap:butt;stroke-linejoin:miter;stroke-opacity:1"
       x="239.00436"
       y="585.67462"
       id="text4154"
       sodipodi:linespacing="125%"><tspan
         sodipodi:role="line"
         id="tspan4156"
         x="239.00436"
         y="585.67462" /></text>
    <text
       xml:space="preserve"
       style="font-style:italic;font-variant:normal;font-weight:normal;font-stretch:normal;font-size:70px;line-height:125%;font-family:sans-serif;-inkscape-font-specification:'sans-serif Italic';text-align:center;letter-spacing:0px;word-spacing:0px;text-anchor:middle;fill:#24221c;fill-opacity:1;stroke:none;stroke-width:1px;stroke-linecap:butt;stroke-linejoin:miter;stroke-opacity:1"
       x="580.35321"
       y="409.61133"
       id="text4158"
       sodipodi:linespacing="125%"><tspan
         sodipodi:role="line"
         x="580.35321"
         y="409.61133"
         id="tspan4162"
         style="font-style:italic;font-variant:normal;font-weight:normal;font-stretch:normal;font-size:60px;font-family:sans-serif;-inkscape-font-specification:'sans-serif Italic';fill:#24221c">:means general syntax error</tspan></text>
    <text
       xml:space="preserve"
       style="font-style:italic;font-variant:normal;font-weight:normal;font-stretch:normal;font-size:70px;line-height:125%;font-family:sans-serif;-inkscape-font-specification:'sans-serif Italic';text-align:center;letter-spacing:0px;word-spacing:0px;text-anchor:middle;fill:#24221c;fill-opacity:1;stroke:none;stroke-width:1px;stroke-linecap:butt;stroke-linejoin:miter;stroke-opacity:1"
       x="598.83307"
       y="639.45734"
       id="text4164"
       sodipodi:linespacing="125%"><tspan
         sodipodi:role="line"
         x="598.83307"
         y="639.45734"
         id="tspan4168"
         style="font-style:italic;font-variant:normal;font-weight:normal;font-stretch:normal;font-size:60px;font-family:sans-serif;-inkscape-font-specification:'sans-serif Italic';fill:#24221c">:named after a room at CERN</tspan></text>
    <g
       style="font-style:normal;font-variant:normal;font-weight:normal;font-stretch:normal;font-size:70px;line-height:125%;font-family:'Lobster Two';-inkscape-font-specification:'Lobster Two';text-align:center;letter-spacing:0px;word-spacing:0px;text-anchor:middle;fill:#333333;fill-opacity:1;stroke:none;stroke-width:1px;stroke-linecap:butt;stroke-linejoin:miter;stroke-opacity:1"
       id="text4176">
      <path
         d="m 192.77395,854.36212 0,-32.4 q -3.42,-1.62 -7.83,-2.7 -4.32,-1.17 -8.82,-1.71 -1.08,3.96 -1.98,8.19 -0.9,4.14 -1.53,8.28 -0.63,4.05 -0.99,8.01 -0.36,3.87 -0.36,7.38 0,3.96 0.54,7.74 0.63,3.78 2.61,7.47 -2.07,0 -4.32,-0.45 -2.25,-0.45 -4.14,-2.07 -1.89,-1.53 -3.15,-4.5 -1.17,-2.88 -1.17,-7.83 0,-3.15 0.45,-7.02 0.45,-3.87 1.35,-8.1 0.9,-4.23 2.16,-8.64 1.35,-4.5 2.97,-8.82 -2.61,0.09 -4.95,0.45 -2.25,0.36 -3.96,1.08 -1.62,0.63 -2.61,1.53 -0.99,0.9 -0.99,1.98 0,0.36 0.09,0.54 2.34,0.72 2.34,2.97 0,1.62 -1.17,2.25 -1.17,0.63 -2.52,0.63 -2.25,0 -4.14,-1.26 -1.98,-1.35 -1.98,-4.59 0,-2.16 1.35,-3.87 1.26,-1.71 3.51,-2.88 2.34,-1.26 5.4,-1.89 3.15,-0.63 6.84,-0.63 0.99,0 2.07,0.09 1.08,0 2.16,0.09 2.25,-5.4 5.04,-10.26 2.79,-4.95 6.03,-8.55 3.24,-3.69 6.84,-5.85 3.6,-2.16 7.56,-2.16 1.35,0 3.33,0.27 2.07,0.27 3.87,0.99 l 0,66.24 -9.9,0 z m -15.75,-39.78 q 4.5,0.81 8.64,2.07 4.14,1.17 7.11,2.61 l 0,-28.08 q -2.25,0.18 -4.41,2.07 -2.16,1.8 -4.23,4.95 -1.98,3.15 -3.78,7.38 -1.8,4.14 -3.33,9 z"
         style="font-style:normal;font-variant:normal;font-weight:normal;font-stretch:normal;font-size:90px;font-family:'Lobster Two';-inkscape-font-specification:'Lobster Two';fill:#333333"
         id="path4214" />
      <path
         d="m 220.00035,809.36212 0,6.84 q 1.35,-2.43 2.7,-3.87 1.44,-1.53 2.88,-2.25 1.44,-0.72 2.7,-0.9 1.35,-0.27 2.52,-0.27 4.05,0 6.48,1.53 2.52,1.53 3.78,3.96 1.26,2.34 1.62,5.22 0.45,2.79 0.45,5.4 0,1.62 -0.09,3.6 -0.09,1.89 -0.18,3.96 -0.09,1.98 -0.18,4.05 -0.09,1.98 -0.09,3.69 0,0.72 0.09,2.07 0.09,1.26 0.45,2.52 0.36,1.26 1.17,2.25 0.81,0.9 2.34,0.9 2.07,0 3.69,-2.34 1.71,-2.34 2.79,-7.47 l 3.33,0 q -0.99,5.67 -2.52,9 -1.53,3.24 -3.24,4.95 -1.71,1.71 -3.42,2.16 -1.71,0.54 -3.15,0.54 -2.88,0 -4.86,-1.08 -1.98,-1.17 -3.24,-3.06 -1.26,-1.89 -1.89,-4.41 -0.54,-2.52 -0.54,-5.22 0,-0.81 0,-2.97 0.09,-2.25 0.09,-4.77 0.09,-2.52 0.09,-4.77 0.09,-2.25 0.09,-3.15 0,-2.88 -0.45,-4.77 -0.45,-1.89 -1.26,-2.97 -0.81,-1.08 -1.89,-1.53 -0.99,-0.45 -2.16,-0.45 -2.79,0 -4.86,2.25 -1.98,2.25 -3.24,7.56 l 0,28.8 -9,0 0,-45 9,0 z"
         style="font-style:normal;font-variant:normal;font-weight:normal;font-stretch:normal;font-size:90px;font-family:'Lobster Two';-inkscape-font-specification:'Lobster Two';fill:#333333"
         id="path4216" />
      <path
         d="m 286.39785,791.36212 0,48.6 q 0,1.08 0.09,2.52 0.09,1.35 0.45,2.61 0.45,1.26 1.26,2.16 0.9,0.81 2.52,0.81 0.72,0 1.53,-0.18 0.9,-0.18 1.44,-0.36 0.09,0.45 0.09,0.81 0.09,0.36 0.09,0.81 0,2.7 -2.07,4.23 -2.07,1.53 -4.68,1.53 -2.79,0 -5.04,-1.89 -2.25,-1.98 -3.06,-6.57 -1.35,3.51 -4.41,6.03 -3.06,2.43 -7.38,2.43 -2.7,0 -5.49,-1.08 -2.7,-1.17 -4.86,-3.6 -2.16,-2.43 -3.6,-6.3 -1.35,-3.87 -1.35,-9.36 0,-4.23 0.9,-8.73 0.99,-4.59 2.97,-8.28 2.07,-3.78 5.31,-6.21 3.24,-2.43 7.74,-2.43 2.34,0 4.77,0.99 2.52,0.99 3.78,3.78 l 0,-21.06 9,-1.26 z m -17.28,56.7 q 1.71,0 3.24,-0.81 1.53,-0.81 2.61,-2.16 1.17,-1.35 1.8,-3.06 0.63,-1.8 0.63,-3.78 l 0,-20.52 q -0.63,-1.53 -1.89,-2.7 -1.26,-1.17 -3.6,-1.17 -2.88,0 -4.86,1.98 -1.98,1.89 -3.24,4.86 -1.26,2.97 -1.89,6.66 -0.54,3.6 -0.54,6.93 0,7.29 2.25,10.53 2.25,3.24 5.49,3.24 z"
         style="font-style:normal;font-variant:normal;font-weight:normal;font-stretch:normal;font-size:90px;font-family:'Lobster Two';-inkscape-font-specification:'Lobster Two';fill:#333333"
         id="path4218" />
      <path
         d="m 297.20629,848.15212 q 0,-1.17 0.54,-2.16 0.54,-0.99 1.35,-1.62 0.9,-0.72 1.89,-1.08 1.08,-0.45 2.07,-0.45 3.42,0 4.86,2.07 1.53,2.07 1.53,5.13 0,2.16 -0.72,4.5 -0.63,2.43 -1.8,4.59 -1.08,2.25 -2.61,3.96 -1.44,1.8 -3.15,2.61 -0.81,-0.45 -1.08,-1.08 -0.18,-0.54 -0.18,-1.08 0,-0.9 0.27,-1.89 0.36,-0.9 0.72,-1.8 0.36,-0.9 0.63,-1.8 0.36,-0.9 0.36,-1.71 0,-1.35 -0.36,-1.98 -0.36,-0.54 -0.9,-0.81 -0.45,-0.36 -1.08,-0.45 -0.63,-0.18 -1.17,-0.63 -0.45,-0.54 -0.81,-1.44 -0.36,-0.99 -0.36,-2.88 z"
         style="font-style:normal;font-variant:normal;font-weight:normal;font-stretch:normal;font-size:90px;font-family:'Lobster Two';-inkscape-font-specification:'Lobster Two';fill:#333333"
         id="path4220" />
      <path
         d="m 367.10395,809.36212 0,43.11 q 2.25,-0.72 3.96,-1.62 1.8,-0.9 3.06,-2.43 1.35,-1.53 2.16,-3.96 0.9,-2.43 1.35,-6.21 l 3.33,0 q -0.72,4.77 -1.89,7.83 -1.08,2.97 -2.79,4.86 -1.62,1.8 -3.96,2.88 -2.25,0.99 -5.22,1.89 l 0,5.76 q 0,4.23 -0.9,7.11 -0.9,2.97 -2.52,4.77 -1.53,1.89 -3.6,2.7 -1.98,0.81 -4.23,0.81 -4.5,0 -7.02,-2.61 -2.52,-2.52 -2.52,-6.21 0,-2.34 0.99,-4.23 1.08,-1.89 2.7,-3.51 1.71,-1.53 3.78,-2.79 2.16,-1.17 4.32,-2.07 l 0,-5.67 q -1.8,2.61 -4.14,3.87 -2.25,1.26 -4.59,1.26 -2.61,0 -4.95,-0.72 -2.34,-0.72 -4.05,-2.34 -1.71,-1.71 -2.7,-4.32 -0.99,-2.7 -0.99,-6.57 l 0,-31.59 9,0 0,30.6 q 0,4.41 1.53,6.3 1.53,1.8 3.87,1.8 1.26,0 2.52,-0.63 1.26,-0.63 2.25,-1.8 0.99,-1.26 1.62,-2.97 0.63,-1.71 0.63,-3.96 l 0,-29.34 9,0 z m -12.96,62.82 q 2.43,0 3.15,-1.89 0.81,-1.8 0.81,-4.95 l 0,-6.3 q -4.5,2.07 -6.39,4.05 -1.89,2.07 -1.89,4.59 0,2.07 1.08,3.24 1.17,1.26 3.24,1.26 z"
         style="font-style:normal;font-variant:normal;font-weight:normal;font-stretch:normal;font-size:90px;font-family:'Lobster Two';-inkscape-font-specification:'Lobster Two';fill:#333333"
         id="path4222" />
      <path
         d="m 394.11098,808.91212 q 3.51,0 6.03,1.08 2.52,1.08 4.14,3.06 1.62,1.89 2.52,4.5 0.99,2.61 1.44,5.58 l 0.54,0 q 3.78,0 6.93,-1.53 3.15,-1.53 5.4,-3.87 l 1.35,2.43 q -1.8,2.88 -5.76,4.77 -3.87,1.89 -8.01,2.61 0,0.9 0,1.8 0.09,0.9 0.09,1.89 0,11.07 -4.05,17.37 -4.05,6.3 -11.34,6.3 -2.97,0 -6.03,-1.08 -2.97,-1.08 -5.4,-3.6 -2.43,-2.52 -3.96,-6.48 -1.44,-3.96 -1.44,-9.81 0,-3.96 0.81,-8.37 0.9,-4.41 2.88,-8.1 2.07,-3.69 5.4,-6.12 3.42,-2.43 8.46,-2.43 z m 0.9,39.15 q 4.77,0 7.02,-4.68 2.25,-4.77 2.25,-13.41 0,-0.54 0,-1.08 0,-0.54 -0.09,-1.08 -2.61,-0.18 -3.78,-1.17 -1.08,-0.99 -1.08,-3.33 0,-2.07 0.9,-2.88 0.9,-0.9 2.7,-0.99 -1.08,-3.15 -2.79,-4.32 -1.62,-1.26 -3.69,-1.26 -2.79,0 -4.77,1.89 -1.89,1.8 -3.15,4.68 -1.17,2.88 -1.71,6.39 -0.54,3.42 -0.54,6.75 0,4.41 0.81,7.2 0.81,2.79 2.07,4.41 1.26,1.62 2.79,2.25 1.53,0.63 3.06,0.63 z"
         style="font-style:normal;font-variant:normal;font-weight:normal;font-stretch:normal;font-size:90px;font-family:'Lobster Two';-inkscape-font-specification:'Lobster Two';fill:#333333"
         id="path4224" />
      <path
         d="m 445.85395,809.36212 0,30.6 q 0,1.08 0.09,2.52 0.09,1.35 0.45,2.61 0.45,1.26 1.26,2.16 0.9,0.81 2.52,0.81 0.72,0 1.53,-0.18 0.9,-0.18 1.44,-0.36 0.09,0.45 0.09,0.81 0.09,0.36 0.09,0.81 0,2.7 -2.07,4.23 -2.07,1.53 -4.68,1.53 -2.79,0 -5.04,-1.89 -2.25,-1.98 -3.06,-6.57 -1.71,4.41 -4.5,6.48 -2.79,1.98 -5.85,1.98 -2.61,0 -4.95,-0.72 -2.34,-0.72 -4.05,-2.34 -1.71,-1.71 -2.7,-4.32 -0.99,-2.7 -0.99,-6.57 l 0,-31.59 9,0 0,30.6 q 0,4.41 1.53,6.3 1.53,1.8 3.87,1.8 1.26,0 2.52,-0.63 1.26,-0.72 2.25,-1.98 0.99,-1.26 1.62,-3.06 0.63,-1.8 0.63,-4.14 l 0,-28.89 9,0 z"
         style="font-style:normal;font-variant:normal;font-weight:normal;font-stretch:normal;font-size:90px;font-family:'Lobster Two';-inkscape-font-specification:'Lobster Two';fill:#333333"
         id="path4226" />
      <path
         d="m 509.9916,809.36212 0,43.11 q 2.25,-0.72 3.96,-1.62 1.8,-0.9 3.06,-2.43 1.35,-1.53 2.16,-3.96 0.9,-2.43 1.35,-6.21 l 3.33,0 q -0.72,4.77 -1.89,7.83 -1.08,2.97 -2.79,4.86 -1.62,1.8 -3.96,2.88 -2.25,0.99 -5.22,1.89 l 0,5.76 q 0,4.23 -0.9,7.11 -0.9,2.97 -2.52,4.77 -1.53,1.89 -3.6,2.7 -1.98,0.81 -4.23,0.81 -4.5,0 -7.02,-2.61 -2.52,-2.52 -2.52,-6.21 0,-2.34 0.99,-4.23 1.08,-1.89 2.7,-3.51 1.71,-1.53 3.78,-2.79 2.16,-1.17 4.32,-2.07 l 0,-7.74 q -1.71,2.34 -4.32,3.87 -2.52,1.53 -5.76,1.53 -2.7,0 -5.49,-0.99 -2.7,-1.08 -4.95,-3.42 -2.16,-2.34 -3.6,-6.12 -1.35,-3.78 -1.35,-9.18 0,-4.05 0.9,-8.37 0.99,-4.32 3.06,-7.83 2.07,-3.6 5.31,-5.94 3.24,-2.34 7.83,-2.34 1.08,0 2.25,0.27 1.26,0.18 2.34,0.72 1.17,0.54 2.16,1.53 0.99,0.9 1.62,2.25 l 0,-4.32 9,0 z m -16.83,36.9 q 1.35,0 2.7,-0.72 1.44,-0.72 2.52,-1.98 1.17,-1.26 1.89,-2.97 0.72,-1.71 0.72,-3.69 l 0,-19.17 q -0.63,-1.44 -1.98,-2.61 -1.26,-1.26 -3.33,-1.26 -2.88,0 -4.95,1.89 -2.07,1.8 -3.33,4.59 -1.26,2.79 -1.89,6.12 -0.54,3.33 -0.54,6.3 0,7.29 2.07,10.44 2.16,3.06 6.12,3.06 z m 3.87,25.92 q 2.43,0 3.15,-1.89 0.81,-1.8 0.81,-4.95 l 0,-6.3 q -4.5,2.07 -6.39,4.05 -1.89,2.07 -1.89,4.59 0,2.07 1.08,3.24 1.17,1.26 3.24,1.26 z"
         style="font-style:normal;font-variant:normal;font-weight:normal;font-stretch:normal;font-size:90px;font-family:'Lobster Two';-inkscape-font-specification:'Lobster Two';fill:#333333"
         id="path4228" />
      <path
         d="m 536.84535,808.91212 q 3.51,0 6.03,1.08 2.52,1.08 4.14,3.06 1.62,1.89 2.52,4.5 0.99,2.61 1.44,5.58 l 0.54,0 q 3.78,0 6.93,-1.53 3.15,-1.53 5.4,-3.87 l 1.35,2.43 q -1.8,2.88 -5.76,4.77 -3.87,1.89 -8.01,2.61 0,0.9 0,1.8 0.09,0.9 0.09,1.89 0,11.07 -4.05,17.37 -4.05,6.3 -11.34,6.3 -2.97,0 -6.03,-1.08 -2.97,-1.08 -5.4,-3.6 -2.43,-2.52 -3.96,-6.48 -1.44,-3.96 -1.44,-9.81 0,-3.96 0.81,-8.37 0.9,-4.41 2.88,-8.1 2.07,-3.69 5.4,-6.12 3.42,-2.43 8.46,-2.43 z m 0.9,39.15 q 4.77,0 7.02,-4.68 2.25,-4.77 2.25,-13.41 0,-0.54 0,-1.08 0,-0.54 -0.09,-1.08 -2.61,-0.18 -3.78,-1.17 -1.08,-0.99 -1.08,-3.33 0,-2.07 0.9,-2.88 0.9,-0.9 2.7,-0.99 -1.08,-3.15 -2.79,-4.32 -1.62,-1.26 -3.69,-1.26 -2.79,0 -4.77,1.89 -1.89,1.8 -3.15,4.68 -1.17,2.88 -1.71,6.39 -0.54,3.42 -0.54,6.75 0,4.41 0.81,7.2 0.81,2.79 2.07,4.41 1.26,1.62 2.79,2.25 1.53,0.63 3.06,0.63 z"
         style="font-style:normal;font-variant:normal;font-weight:normal;font-stretch:normal;font-size:90px;font-family:'Lobster Two';-inkscape-font-specification:'Lobster Two';fill:#333333"
         id="path4230" />
      <path
         d="m 567.25832,795.68212 0,13.68 6.93,0 0,3.15 -6.93,0 0,27.45 q 0,1.08 0,2.52 0.09,1.35 0.45,2.61 0.45,1.26 1.17,2.16 0.81,0.81 2.34,0.81 0.72,0 1.71,-0.18 1.08,-0.18 1.62,-0.36 0.09,0.45 0.09,0.81 0.09,0.36 0.09,0.81 0,1.53 -0.72,2.7 -0.63,1.08 -1.71,1.8 -1.08,0.63 -2.43,0.9 -1.35,0.36 -2.7,0.36 -2.7,0 -4.41,-1.08 -1.71,-1.17 -2.79,-2.97 -0.99,-1.89 -1.35,-4.14 -0.36,-2.25 -0.36,-4.5 l 0,-29.7 -3.06,0 0,-3.15 3.06,0 0,-12.42 9,-1.26 z"
         style="font-style:normal;font-variant:normal;font-weight:normal;font-stretch:normal;font-size:90px;font-family:'Lobster Two';-inkscape-font-specification:'Lobster Two';fill:#333333"
         id="path4232" />
      <path
         d="m 629.36957,809.36212 0,43.11 q 2.25,-0.72 3.96,-1.62 1.8,-0.9 3.06,-2.43 1.35,-1.53 2.16,-3.96 0.9,-2.43 1.35,-6.21 l 3.33,0 q -0.72,4.77 -1.89,7.83 -1.08,2.97 -2.79,4.86 -1.62,1.8 -3.96,2.88 -2.25,0.99 -5.22,1.89 l 0,5.76 q 0,4.23 -0.9,7.11 -0.9,2.97 -2.52,4.77 -1.53,1.89 -3.6,2.7 -1.98,0.81 -4.23,0.81 -4.5,0 -7.02,-2.61 -2.52,-2.52 -2.52,-6.21 0,-2.34 0.99,-4.23 1.08,-1.89 2.7,-3.51 1.71,-1.53 3.78,-2.79 2.16,-1.17 4.32,-2.07 l 0,-5.67 q -1.8,2.61 -4.14,3.87 -2.25,1.26 -4.59,1.26 -2.61,0 -4.95,-0.72 -2.34,-0.72 -4.05,-2.34 -1.71,-1.71 -2.7,-4.32 -0.99,-2.7 -0.99,-6.57 l 0,-31.59 9,0 0,30.6 q 0,4.41 1.53,6.3 1.53,1.8 3.87,1.8 1.26,0 2.52,-0.63 1.26,-0.63 2.25,-1.8 0.99,-1.26 1.62,-2.97 0.63,-1.71 0.63,-3.96 l 0,-29.34 9,0 z m -12.96,62.82 q 2.43,0 3.15,-1.89 0.81,-1.8 0.81,-4.95 l 0,-6.3 q -4.5,2.07 -6.39,4.05 -1.89,2.07 -1.89,4.59 0,2.07 1.08,3.24 1.17,1.26 3.24,1.26 z"
         style="font-style:normal;font-variant:normal;font-weight:normal;font-stretch:normal;font-size:90px;font-family:'Lobster Two';-inkscape-font-specification:'Lobster Two';fill:#333333"
         id="path4234" />
      <path
         d="m 656.3766,808.91212 q 3.51,0 6.03,1.08 2.52,1.08 4.14,3.06 1.62,1.89 2.52,4.5 0.99,2.61 1.44,5.58 l 0.54,0 q 3.78,0 6.93,-1.53 3.15,-1.53 5.4,-3.87 l 1.35,2.43 q -1.8,2.88 -5.76,4.77 -3.87,1.89 -8.01,2.61 0,0.9 0,1.8 0.09,0.9 0.09,1.89 0,11.07 -4.05,17.37 -4.05,6.3 -11.34,6.3 -2.97,0 -6.03,-1.08 -2.97,-1.08 -5.4,-3.6 -2.43,-2.52 -3.96,-6.48 -1.44,-3.96 -1.44,-9.81 0,-3.96 0.81,-8.37 0.9,-4.41 2.88,-8.1 2.07,-3.69 5.4,-6.12 3.42,-2.43 8.46,-2.43 z m 0.9,39.15 q 4.77,0 7.02,-4.68 2.25,-4.77 2.25,-13.41 0,-0.54 0,-1.08 0,-0.54 -0.09,-1.08 -2.61,-0.18 -3.78,-1.17 -1.08,-0.99 -1.08,-3.33 0,-2.07 0.9,-2.88 0.9,-0.9 2.7,-0.99 -1.08,-3.15 -2.79,-4.32 -1.62,-1.26 -3.69,-1.26 -2.79,0 -4.77,1.89 -1.89,1.8 -3.15,4.68 -1.17,2.88 -1.71,6.39 -0.54,3.42 -0.54,6.75 0,4.41 0.81,7.2 0.81,2.79 2.07,4.41 1.26,1.62 2.79,2.25 1.53,0.63 3.06,0.63 z"
         style="font-style:normal;font-variant:normal;font-weight:normal;font-stretch:normal;font-size:90px;font-family:'Lobster Two';-inkscape-font-specification:'Lobster Two';fill:#333333"
         id="path4236" />
      <path
         d="m 708.11957,809.36212 0,30.6 q 0,0.9 0.09,2.25 0.09,1.35 0.45,2.7 0.45,1.26 1.26,2.25 0.81,0.9 2.25,0.9 4.41,0 6.48,-9.81 l 3.33,0 q -0.99,5.67 -2.52,9 -1.53,3.24 -3.24,4.95 -1.71,1.71 -3.51,2.16 -1.8,0.54 -3.24,0.54 -2.07,0 -3.6,-0.72 -1.44,-0.72 -2.52,-1.89 -0.99,-1.17 -1.62,-2.7 -0.63,-1.53 -0.99,-3.15 -1.71,4.41 -4.5,6.48 -2.79,1.98 -5.85,1.98 -2.61,0 -4.95,-0.72 -2.34,-0.72 -4.05,-2.34 -1.71,-1.71 -2.7,-4.32 -0.99,-2.7 -0.99,-6.57 l 0,-31.59 9,0 0,30.6 q 0,4.41 1.53,6.3 1.53,1.8 3.87,1.8 1.26,0 2.52,-0.63 1.26,-0.72 2.25,-1.98 0.99,-1.26 1.62,-3.06 0.63,-1.8 0.63,-4.14 l 0,-28.89 9,0 z"
         style="font-style:normal;font-variant:normal;font-weight:normal;font-stretch:normal;font-size:90px;font-family:'Lobster Two';-inkscape-font-specification:'Lobster Two';fill:#333333"
         id="path4238" />
      <path
         d="m 727.48082,809.36212 0,7.56 q 1.08,-1.62 2.07,-3.06 1.08,-1.44 2.34,-2.52 1.26,-1.08 2.79,-1.71 1.53,-0.72 3.42,-0.72 3.06,0 4.5,1.62 1.44,1.53 1.44,3.78 0,1.35 -0.45,2.25 -0.45,0.9 -1.08,1.44 -0.63,0.54 -1.35,0.81 -0.72,0.18 -1.26,0.18 -0.81,0 -1.35,-0.36 -0.45,-0.36 -0.99,-0.72 -0.45,-0.45 -1.08,-0.81 -0.63,-0.36 -1.62,-0.36 -2.07,0 -3.96,1.44 -1.89,1.44 -3.42,3.06 l 0,33.12 -9,0 0,-45 9,0 z"
         style="font-style:normal;font-variant:normal;font-weight:normal;font-stretch:normal;font-size:90px;font-family:'Lobster Two';-inkscape-font-specification:'Lobster Two';fill:#333333"
         id="path4240" />
      <path
         d="m 783.3652,838.25212 q -2.61,3.6 -5.4,6.03 -2.7,2.34 -5.31,4.14 -0.99,1.8 -2.52,3.06 -1.53,1.17 -3.33,1.98 -1.71,0.72 -3.51,1.08 -1.71,0.36 -3.15,0.36 -3.96,0 -6.57,-1.26 -2.52,-1.26 -4.05,-3.15 -1.53,-1.98 -2.16,-4.32 -0.63,-2.43 -0.63,-4.59 0,-2.34 0.9,-4.05 0.99,-1.8 2.34,-2.52 2.34,-6.75 4.59,-13.32 2.25,-6.66 2.97,-13.32 l 9.09,-1.8 q 2.16,8.55 3.51,13.95 1.44,5.4 2.25,9.18 0.9,3.69 1.26,6.57 0.45,2.79 0.45,6.21 1.53,-0.99 2.88,-2.07 1.35,-1.17 2.61,-2.16 l 3.78,0 z m -18.81,3.6 q 0,-2.79 -0.36,-4.95 -0.27,-2.16 -0.9,-4.77 -0.63,-2.61 -1.62,-6.3 -0.9,-3.78 -2.16,-9.63 -0.54,5.04 -2.25,9.63 -1.62,4.59 -2.97,9.45 0.81,0.54 1.35,1.53 0.63,0.9 0.63,2.43 0,1.71 -0.9,2.61 -0.9,0.9 -1.98,0.9 -1.44,0 -2.43,-1.26 0.72,3.15 2.52,4.95 1.8,1.71 4.77,1.71 2.88,0 4.59,-1.44 1.71,-1.53 1.71,-4.86 z"
         style="font-style:normal;font-variant:normal;font-weight:normal;font-stretch:normal;font-size:90px;font-family:'Lobster Two';-inkscape-font-specification:'Lobster Two';fill:#333333"
         id="path4242" />
      <path
         d="m 807.64691,820.61212 q 0,6.3 -5.22,10.53 -5.13,4.23 -14.31,5.22 0.36,3.6 1.26,5.85 0.99,2.25 2.34,3.6 1.35,1.26 3.06,1.8 1.8,0.45 3.69,0.45 4.32,0 8.1,-2.25 3.78,-2.25 6.12,-7.56 l 2.88,0 q -1.17,3.33 -3.24,6.39 -2.07,2.97 -4.86,5.31 -2.79,2.25 -6.03,3.6 -3.24,1.35 -6.66,1.35 -3.15,0 -6.12,-1.08 -2.88,-1.08 -5.13,-3.51 -2.25,-2.52 -3.69,-6.48 -1.35,-3.96 -1.35,-9.72 0,-3.78 0.81,-8.19 0.9,-4.41 2.88,-8.19 2.07,-3.78 5.31,-6.3 3.33,-2.52 8.19,-2.52 2.25,0 4.32,0.54 2.16,0.45 3.87,1.8 1.71,1.26 2.7,3.51 1.08,2.25 1.08,5.85 z m -19.62,12.24 q 6.39,-0.99 10.08,-4.5 3.78,-3.51 3.78,-8.64 0,-3.42 -1.17,-4.86 -1.17,-1.53 -3.33,-1.53 -2.34,0 -4.14,1.8 -1.71,1.8 -2.88,4.68 -1.17,2.79 -1.8,6.3 -0.54,3.42 -0.54,6.75 z"
         style="font-style:normal;font-variant:normal;font-weight:normal;font-stretch:normal;font-size:90px;font-family:'Lobster Two';-inkscape-font-specification:'Lobster Two';fill:#333333"
         id="path4244" />
      <path
         d="m 821.61379,791.36212 0,48.6 q 0,0.9 0.09,2.25 0.09,1.35 0.45,2.7 0.45,1.26 1.26,2.25 0.81,0.9 2.25,0.9 4.41,0 6.48,-9.81 l 3.33,0 q -0.99,5.67 -2.52,9 -1.53,3.24 -3.24,4.95 -1.71,1.71 -3.51,2.16 -1.8,0.54 -3.24,0.54 -3.15,0 -5.13,-1.17 -1.98,-1.26 -3.15,-3.15 -1.17,-1.89 -1.62,-4.23 -0.45,-2.34 -0.45,-4.5 l 0,-49.23 9,-1.26 z"
         style="font-style:normal;font-variant:normal;font-weight:normal;font-stretch:normal;font-size:90px;font-family:'Lobster Two';-inkscape-font-specification:'Lobster Two';fill:#333333"
         id="path4246" />
      <path
         d="m 841.03551,809.36212 7.29,0 0,3.15 -7.29,0 0,49.05 q 0,4.77 -0.99,7.74 -0.9,2.97 -2.43,4.68 -1.53,1.71 -3.6,2.25 -1.98,0.63 -4.23,0.63 -4.86,0 -7.11,-2.25 -2.34,-2.25 -2.34,-6.48 0,-2.25 1.08,-4.14 0.99,-1.89 2.7,-3.51 1.62,-1.53 3.69,-2.79 2.07,-1.17 4.23,-2.07 l 0,-53.1 q 0,-7.83 3.69,-11.7 3.69,-3.96 9.45,-3.96 2.7,0 4.95,0.81 2.25,0.81 3.96,2.52 1.71,1.71 2.61,4.23 0.99,2.52 0.99,5.94 l -3.51,0 q -0.54,-3.6 -1.98,-5.67 -1.35,-2.07 -4.59,-2.07 -2.16,0 -3.42,0.99 -1.26,0.9 -1.98,2.52 -0.72,1.62 -0.99,3.96 -0.18,2.25 -0.18,4.95 l 0,4.32 z m -13.05,62.82 q 2.61,0 3.33,-2.79 0.72,-2.79 0.72,-7.65 l 0,-2.79 q -4.05,1.98 -6.12,4.32 -2.07,2.34 -2.07,4.59 0,1.8 1.17,3.06 1.17,1.26 2.97,1.26 z"
         style="font-style:normal;font-variant:normal;font-weight:normal;font-stretch:normal;font-size:90px;font-family:'Lobster Two';-inkscape-font-specification:'Lobster Two';fill:#333333"
         id="path4248" />
      <path
         d="m 906.02676,809.36212 0,30.6 q 0,1.08 0.09,2.52 0.09,1.35 0.45,2.61 0.45,1.26 1.26,2.16 0.9,0.81 2.52,0.81 0.72,0 1.53,-0.18 0.9,-0.18 1.44,-0.36 0.09,0.45 0.09,0.81 0.09,0.36 0.09,0.81 0,2.7 -2.07,4.23 -2.07,1.53 -4.68,1.53 -2.79,0 -5.04,-1.89 -2.25,-1.98 -3.06,-6.57 -1.35,3.51 -4.41,6.03 -3.06,2.43 -7.38,2.43 -2.7,0 -5.49,-1.08 -2.7,-1.17 -4.86,-3.6 -2.16,-2.43 -3.6,-6.3 -1.35,-3.87 -1.35,-9.36 0,-4.23 0.9,-8.73 0.99,-4.59 2.97,-8.28 2.07,-3.78 5.31,-6.21 3.24,-2.43 7.74,-2.43 2.34,0 4.77,0.99 2.52,0.99 3.78,3.78 l 0,-4.32 9,0 z m -17.28,38.7 q 1.71,0 3.24,-0.81 1.53,-0.81 2.61,-2.16 1.17,-1.35 1.8,-3.06 0.63,-1.8 0.63,-3.78 l 0,-20.52 q -0.63,-1.53 -1.89,-2.7 -1.26,-1.17 -3.6,-1.17 -2.88,0 -4.86,1.98 -1.98,1.89 -3.24,4.86 -1.26,2.97 -1.89,6.66 -0.54,3.6 -0.54,6.93 0,7.29 2.25,10.53 2.25,3.24 5.49,3.24 z"
         style="font-style:normal;font-variant:normal;font-weight:normal;font-stretch:normal;font-size:90px;font-family:'Lobster Two';-inkscape-font-specification:'Lobster Two';fill:#333333"
         id="path4250" />
      <path
         d="m 305.29785,908.16728 2.85645,0 0,41.57227 10.10742,0 0,3.73535 -10.10742,0 0,9.36035 q 0,1.23047 0.96679,1.97754 1.40625,1.01074 3.25196,1.01074 l 3.73535,0 0,3.2959 -24.38965,0 0,-3.2959 4.52637,0 q 2.28515,0 3.33984,-0.96679 1.09863,-0.9668 1.09863,-2.8125 l 0,-8.56934 -24.87304,0 0,-4.21875 29.4873,-41.08887 z m -4.61426,11.90918 -21.22558,29.66309 21.22558,0 0,-29.66309 z"
         style="font-style:normal;font-variant:normal;font-weight:normal;font-stretch:normal;font-family:Century;-inkscape-font-specification:Century"
         id="path4252" />
      <path
         d="m 346.25488,907.02471 q 8.56934,0 14.28223,6.67968 7.07519,8.21778 7.07519,24.917 0,15.51269 -6.15234,23.64257 -6.15234,8.08594 -14.85351,8.08594 -8.39356,0 -14.01856,-6.81152 -7.03125,-8.56934 -7.03125,-24.74121 0,-15.38086 6.63574,-24.47754 5.31739,-7.29492 14.0625,-7.29492 z m 0.26367,3.16406 q -5.80078,0 -9.05273,5.58105 -3.25195,5.53711 -3.25195,23.02735 0,17.09472 3.33984,22.80761 3.38379,5.71289 9.05274,5.71289 5.71289,0 8.78906,-5.27343 3.64746,-6.28418 3.64746,-22.93946 0,-17.22656 -3.42774,-23.07128 -3.42773,-5.84473 -9.09668,-5.84473 z"
         style="font-style:normal;font-variant:normal;font-weight:normal;font-stretch:normal;font-family:Century;-inkscape-font-specification:Century"
         id="path4254" />
      <path
         d="m 405.49316,908.16728 2.85645,0 0,41.57227 10.10742,0 0,3.73535 -10.10742,0 0,9.36035 q 0,1.23047 0.9668,1.97754 1.40625,1.01074 3.25195,1.01074 l 3.73535,0 0,3.2959 -24.38965,0 0,-3.2959 4.52637,0 q 2.28516,0 3.33984,-0.96679 1.09864,-0.9668 1.09864,-2.8125 l 0,-8.56934 -24.87305,0 0,-4.21875 29.4873,-41.08887 z m -4.61425,11.90918 -21.22559,29.66309 21.22559,0 0,-29.66309 z"
         style="font-style:normal;font-variant:normal;font-weight:normal;font-stretch:normal;font-family:Century;-inkscape-font-specification:Century"
         id="path4256" />
      <path
         d="m 452.16309,904.12432 51.5039,0 1.23047,21.92871 -2.94434,0 q -1.75781,-10.3711 -5.58105,-14.50196 -3.7793,-4.13086 -9.8877,-4.13086 l -12.74414,0 q -1.53808,0 -2.3291,0.83496 -0.79101,0.83497 -0.79101,2.54883 l 0,23.15918 5.58105,0 q 4.48242,0 7.25098,-3.20801 2.8125,-3.208 3.03222,-9.84375 l 3.03223,0 0,30.10254 -3.03223,0 q -0.21972,-7.4707 -3.07617,-10.67871 -2.8125,-3.25195 -7.69043,-3.25195 l -5.09765,0 0,25.83984 q 0,1.40625 0.92285,2.15332 0.9668,0.74707 3.16406,0.74707 l 10.06348,0 q 16.3916,0 18.89648,-20.91796 l 3.16406,0 -1.09863,24.21386 -53.56933,0 0,-3.2959 4.43847,0 q 2.59278,0 3.64746,-0.8789 1.05469,-0.92285 1.05469,-2.63672 l 0,-51.50391 q 0,-1.71386 -0.92285,-2.54883 -0.92285,-0.83496 -2.90039,-0.83496 l -5.31738,0 0,-3.29589 z"
         style="font-style:normal;font-variant:normal;font-weight:normal;font-stretch:normal;font-family:Century;-inkscape-font-specification:Century"
         id="path4258" />
      <path
         d="m 513.59863,904.12432 33.57422,0 q 9.75586,0 15.11719,4.43847 5.40527,4.43848 5.40527,11.64551 0,4.30664 -2.15332,7.69043 -2.10937,3.33984 -6.15234,5.36133 -3.99903,1.97754 -12.61231,2.85644 6.28418,1.71387 8.65723,3.38379 2.37305,1.62598 3.7793,4.2627 1.45019,2.59277 3.2959,10.63476 1.31835,5.75684 2.8125,7.86621 1.14257,1.62598 2.46093,1.62598 1.36231,0 2.50489,-1.97754 1.18652,-2.02148 1.45019,-7.07519 l 2.98828,0 q -0.83496,14.9414 -11.03027,14.9414 -3.20801,0 -5.58106,-1.62597 -2.3291,-1.62598 -3.51562,-4.79004 -0.92285,-2.37305 -2.06543,-12.43653 -0.65918,-5.84472 -2.10938,-8.30566 -1.40625,-2.46094 -4.43847,-3.95508 -3.03223,-1.49414 -7.25098,-1.49414 l -5.31738,0 0,25.53223 q 0,1.62597 0.83496,2.28515 1.05469,0.83496 3.2959,0.83496 l 6.24023,0 0,3.2959 -30.19043,0 0,-3.2959 6.37207,0 q 2.10938,0 3.07617,-0.83496 1.01075,-0.83496 1.01075,-2.28515 l 0,-51.94336 q 0,-1.66992 -1.01075,-2.50489 -1.01074,-0.83496 -3.07617,-0.83496 l -6.37207,0 0,-3.29589 z m 19.81934,29.88281 7.69043,0 q 7.73437,0 12.08496,-2.90039 4.39453,-2.94434 4.39453,-10.41504 0,-5.1416 -1.66992,-8.12988 -1.62598,-2.98829 -4.30664,-4.08692 -2.68067,-1.09863 -10.54688,-1.09863 -5.18554,0 -6.41601,0.74707 -1.23047,0.70312 -1.23047,2.46094 l 0,23.42285 z"
         style="font-style:normal;font-variant:normal;font-weight:normal;font-stretch:normal;font-family:Century;-inkscape-font-specification:Century"
         id="path4260" />
      <path
         d="m 578.6377,904.12432 33.57421,0 q 9.75586,0 15.11719,4.43847 5.40527,4.43848 5.40527,11.64551 0,4.30664 -2.15332,7.69043 -2.10937,3.33984 -6.15234,5.36133 -3.99902,1.97754 -12.6123,2.85644 6.28418,1.71387 8.65722,3.38379 2.37305,1.62598 3.7793,4.2627 1.45019,2.59277 3.2959,10.63476 1.31836,5.75684 2.8125,7.86621 1.14258,1.62598 2.46094,1.62598 1.3623,0 2.50488,-1.97754 1.18652,-2.02148 1.45019,-7.07519 l 2.98828,0 q -0.83496,14.9414 -11.03027,14.9414 -3.20801,0 -5.58105,-1.62597 -2.3291,-1.62598 -3.51563,-4.79004 -0.92285,-2.37305 -2.06543,-12.43653 -0.65918,-5.84472 -2.10937,-8.30566 -1.40625,-2.46094 -4.43848,-3.95508 -3.03223,-1.49414 -7.25098,-1.49414 l -5.31738,0 0,25.53223 q 0,1.62597 0.83496,2.28515 1.05469,0.83496 3.2959,0.83496 l 6.24023,0 0,3.2959 -30.19042,0 0,-3.2959 6.37207,0 q 2.10937,0 3.07617,-0.83496 1.01074,-0.83496 1.01074,-2.28515 l 0,-51.94336 q 0,-1.66992 -1.01074,-2.50489 -1.01074,-0.83496 -3.07617,-0.83496 l -6.37207,0 0,-3.29589 z m 19.81933,29.88281 7.69043,0 q 7.73438,0 12.08496,-2.90039 4.39453,-2.94434 4.39453,-10.41504 0,-5.1416 -1.66992,-8.12988 -1.62598,-2.98829 -4.30664,-4.08692 -2.68066,-1.09863 -10.54687,-1.09863 -5.18555,0 -6.41602,0.74707 -1.23047,0.70312 -1.23047,2.46094 l 0,23.42285 z"
         style="font-style:normal;font-variant:normal;font-weight:normal;font-stretch:normal;font-family:Century;-inkscape-font-specification:Century"
         id="path4262" />
      <path
         d="m 675.84473,902.76201 q 8.21777,0 15.38086,4.35059 7.20703,4.30664 11.25,12.08496 4.08691,7.73437 4.08691,17.44629 0,9.71191 -4.08691,17.53418 -4.08692,7.82226 -11.25,12.21679 -7.11914,4.35059 -15.11719,4.35059 -7.82227,0 -14.67774,-4.2627 -6.85546,-4.30664 -11.03027,-12.26074 -4.13086,-7.99805 -4.13086,-17.70996 0,-9.58008 3.99902,-17.27051 4.04297,-7.73437 11.03028,-12.08496 6.9873,-4.39453 14.5459,-4.39453 z m 0.70312,3.38379 q -8.56933,0 -13.88672,7.11914 -5.31738,7.11914 -5.31738,23.20313 0,17.44628 5.44922,24.12597 5.44922,6.67969 13.49121,6.67969 5.625,0 9.88769,-3.03223 4.2627,-3.03222 6.76758,-9.62402 2.54883,-6.5918 2.54883,-17.31445 0,-11.68946 -2.37305,-18.23731 -2.37304,-6.5918 -6.76757,-9.75586 -4.39454,-3.16406 -9.79981,-3.16406 z"
         style="font-style:normal;font-variant:normal;font-weight:normal;font-stretch:normal;font-family:Century;-inkscape-font-specification:Century"
         id="path4264" />
      <path
         d="m 713.6377,904.12432 33.57421,0 q 9.75586,0 15.11719,4.43847 5.40527,4.43848 5.40527,11.64551 0,4.30664 -2.15332,7.69043 -2.10937,3.33984 -6.15234,5.36133 -3.99902,1.97754 -12.6123,2.85644 6.28418,1.71387 8.65722,3.38379 2.37305,1.62598 3.7793,4.2627 1.45019,2.59277 3.2959,10.63476 1.31836,5.75684 2.8125,7.86621 1.14258,1.62598 2.46094,1.62598 1.3623,0 2.50488,-1.97754 1.18652,-2.02148 1.45019,-7.07519 l 2.98828,0 q -0.83496,14.9414 -11.03027,14.9414 -3.20801,0 -5.58105,-1.62597 -2.3291,-1.62598 -3.51563,-4.79004 -0.92285,-2.37305 -2.06543,-12.43653 -0.65918,-5.84472 -2.10937,-8.30566 -1.40625,-2.46094 -4.43848,-3.95508 -3.03223,-1.49414 -7.25098,-1.49414 l -5.31738,0 0,25.53223 q 0,1.62597 0.83496,2.28515 1.05469,0.83496 3.2959,0.83496 l 6.24023,0 0,3.2959 -30.19042,0 0,-3.2959 6.37207,0 q 2.10937,0 3.07617,-0.83496 1.01074,-0.83496 1.01074,-2.28515 l 0,-51.94336 q 0,-1.66992 -1.01074,-2.50489 -1.01074,-0.83496 -3.07617,-0.83496 l -6.37207,0 0,-3.29589 z m 19.81933,29.88281 7.69043,0 q 7.73438,0 12.08496,-2.90039 4.39453,-2.94434 4.39453,-10.41504 0,-5.1416 -1.66992,-8.12988 -1.62598,-2.98829 -4.30664,-4.08692 -2.68066,-1.09863 -10.54687,-1.09863 -5.18555,0 -6.41602,0.74707 -1.23047,0.70312 -1.23047,2.46094 l 0,23.42285 z"
         style="font-style:normal;font-variant:normal;font-weight:normal;font-stretch:normal;font-family:Century;-inkscape-font-specification:Century"
         id="path4266" />
      <path
         d="m 779.8116,963.62943 q 0,-2.43 1.71,-4.23 1.71,-1.8 4.23,-1.8 2.43,0 4.23,1.8 1.8,1.8 1.8,4.23 0,2.52 -1.8,4.23 -1.8,1.71 -4.23,1.71 -2.52,0 -4.23,-1.71 -1.71,-1.71 -1.71,-4.23 z"
         style="font-style:normal;font-variant:normal;font-weight:normal;font-stretch:normal;font-size:90px;font-family:'Lobster Two';-inkscape-font-specification:'Lobster Two';fill:#333333"
         id="path4268" />
    </g>
    <use
       x="0"
       y="0"
       xlink:href="#text4138"
       id="use4197"
       transform="translate(0,476)"
       width="100%"
       height="100%" />
    <text
       sodipodi:linespacing="125%"
       id="text4199"
       y="454.29935"
       x="35.149246"
       style="font-style:normal;font-weight:normal;font-size:180px;line-height:125%;font-family:sans-serif;letter-spacing:0px;word-spacing:0px;writing-mode:lr-tb;fill:#24221c;fill-opacity:1;stroke:none;stroke-width:1px;stroke-linecap:butt;stroke-linejoin:miter;stroke-opacity:1"
       xml:space="preserve"><tspan
         style="font-style:normal;font-variant:normal;font-weight:normal;font-stretch:extra-condensed;font-family:Algerian;-inkscape-font-specification:'Algerian Extra-Condensed';writing-mode:lr-tb"
         y="454.29935"
         x="35.149246"
         id="tspan4201"
         sodipodi:role="line">0</tspan></text>
  </g>
</svg>
