<?xml version="1.0" encoding="UTF-8" standalone="no"?>
<!-- Created with Inkscape (http://www.inkscape.org/) -->

<svg
   xmlns:dc="http://purl.org/dc/elements/1.1/"
   xmlns:cc="http://creativecommons.org/ns#"
   xmlns:rdf="http://www.w3.org/1999/02/22-rdf-syntax-ns#"
   xmlns:svg="http://www.w3.org/2000/svg"
   xmlns="http://www.w3.org/2000/svg"
   xmlns:sodipodi="http://sodipodi.sourceforge.net/DTD/sodipodi-0.dtd"
   xmlns:inkscape="http://www.inkscape.org/namespaces/inkscape"
   width="100"
   height="100"
   viewBox="0 0 100 100"
   id="svg2"
   version="1.1"
   inkscape:version="0.91 r13725"
   sodipodi:docname="icon.svg">
  <defs
     id="defs4" />
  <sodipodi:namedview
     id="base"
     pagecolor="#ffffff"
     bordercolor="#666666"
     borderopacity="1.0"
     inkscape:pageopacity="0.0"
     inkscape:pageshadow="2"
     inkscape:zoom="5.6"
     inkscape:cx="16.341554"
     inkscape:cy="32.022984"
     inkscape:document-units="px"
     inkscape:current-layer="layer1"
     showgrid="false"
     units="px"
     width="100px"
     inkscape:window-width="1920"
     inkscape:window-height="1017"
     inkscape:window-x="-8"
     inkscape:window-y="-8"
     inkscape:window-maximized="1" />
  <metadata
     id="metadata7">
    <rdf:RDF>
      <cc:Work
         rdf:about="">
        <dc:format>image/svg+xml</dc:format>
        <dc:type
           rdf:resource="http://purl.org/dc/dcmitype/StillImage" />
        <dc:title></dc:title>
      </cc:Work>
    </rdf:RDF>
  </metadata>
  <g
     inkscape:label="Layer 1"
     inkscape:groupmode="layer"
     id="layer1"
     transform="translate(0,-952.3622)">
    <g
       id="g4164"
       transform="translate(0.51880349,0.62676805)">
      <g
         transform="matrix(1.206044,0,0,1.206044,-9.403553,-203.96012)"
         id="text4136"
         style="font-style:normal;font-weight:normal;font-size:60px;line-height:125%;font-family:sans-serif;letter-spacing:0px;word-spacing:0px;fill:#00aa88;fill-opacity:1;stroke:#13bab9;stroke-width:1px;stroke-linecap:butt;stroke-linejoin:miter;stroke-opacity:1">
        <path
           inkscape:connector-curvature="0"
           id="path4141"
           style="font-style:italic;font-variant:normal;font-weight:normal;font-stretch:normal;font-size:70px;font-family:Aroly;-inkscape-font-specification:'Aroly Italic';fill:#00aa88;stroke:#13bab9;stroke-opacity:1"
           d="m 19.599869,971.04101 -3.15,-5.67 0.35,-0.14 3.08,5.67 -0.28,0.14 0,0 z m -2.87,3.64 -0.28,-0.21 3.15,-3.64 0.28,0.28 -3.15,3.57 0,0 z m -0.28,-0.14 0,-9.24 0.35,0 0,9.24 -0.35,0 0,0 z m 3.36,-3.43 -0.21,-0.28 6.86,-5.53 0.21,0.28 -6.86,5.53 0,0 z m 6.72,-5.46 -9.94,-0.14 0,-0.35 9.94,0.14 0,0.35 0,0 z m 1.12,5.32 -1.26,-5.46 0.35,-0.07 1.26,5.46 -0.35,0.07 0,0 z m -7.91,0.14 0,-0.35 8.12,0 0,0.35 -8.12,0 0,0 z m 6.86,-5.46 -0.07,-0.35 6.09,-0.14 0,0.35 -6.02,0.14 0,0 z m 13.79,0.7 -7.84,-0.84 0.07,-0.35 7.77,0.84 0,0.35 0,0 z m 5.53,3.22 -5.6,-3.22 0.14,-0.28 5.6,3.15 -0.14,0.35 0,0 z m 2.87,5.04 -2.94,-5.11 0.28,-0.21 2.94,5.18 -0.28,0.14 0,0 z m 0.56,5.81 -0.63,-5.88 0.35,0 0.63,5.88 -0.35,0 0,0 z m -1.19,4.9 -0.35,-0.07 1.54,-4.9 0.35,0.14 -1.54,4.83 0,0 z m -3.99,4.41 -0.28,-0.21 3.92,-4.34 0.28,0.21 -3.92,4.34 0,0 z m -0.28,-0.07 -1.54,-4.9 0.35,-0.07 1.54,4.9 -0.35,0.07 0,0 z m 4.06,-4.2 -5.46,-0.56 0.07,-0.35 5.46,0.56 -0.07,0.35 0,0 z m -5.25,-0.7 -0.35,-0.07 1.54,-5.39 0.35,0.14 -1.54,5.32 0,0 z m 5.11,0.63 -3.92,-5.95 0.28,-0.14 3.92,5.88 -0.28,0.21 0,0 z m -3.57,-6.02 -0.35,-0.07 1.89,-9.94 0.35,0.07 -1.89,9.94 0,0 z m -0.07,0.14 -0.28,-0.28 4.9,-4.83 0.21,0.28 -4.83,4.83 0,0 z m -0.21,0 -4.48,-2.38 0.14,-0.35 4.48,2.45 -0.14,0.28 0,0 z m -5.74,0.98 -0.35,-0.14 1.54,-3.5 0.35,0.14 -1.54,3.5 0,0 z m 1.47,-3.43 -0.28,-0.21 6.44,-7.56 0.28,0.21 -6.44,7.56 0,0 z m -0.28,-0.07 -1.54,-5.95 0.35,-0.14 1.54,6.02 -0.35,0.07 0,0 z m -1.33,-5.88 -0.07,-0.35 7.91,-1.54 0.07,0.35 -7.91,1.54 0,0 z m -2.87,4.13 -0.28,-0.21 2.94,-4.2 0.28,0.21 -2.94,4.2 0,0 z m 1.89,1.82 -2.1,-1.75 0.21,-0.28 2.1,1.75 -0.21,0.28 0,0 z m 0.77,3.36 -0.84,-3.43 0.35,-0.07 0.84,3.43 -0.35,0.07 0,0 z m 1.75,-3.29 -2.38,0 0,-0.35 2.38,0 0,0.35 0,0 z m -2.24,-0.14 -0.35,-0.07 0.84,-5.95 0.35,0 -0.84,6.02 0,0 z m 0.84,-5.95 -0.35,-0.14 2.38,-4.76 0.28,0.14 -2.31,4.76 0,0 z m -10.29,0.07 -0.28,-0.28 4.83,-5.6 0.28,0.21 -4.83,5.67 0,0 z m 0.42,3.22 -0.7,-3.36 0.35,-0.07 0.7,3.36 -0.35,0.07 0,0 z m 0.35,8.47 -0.35,0 0,-8.54 0.35,0 0,8.54 0,0 z m 3.92,-8.33 -4.06,0 0,-0.35 4.06,0 0,0.35 0,0 z m 2.45,0.84 -2.52,-0.84 0.07,-0.35 2.52,0.84 -0.07,0.35 0,0 z m -2.59,-0.84 -4.76,-3.36 0.21,-0.28 4.76,3.36 -0.21,0.28 0,0 z m 0.28,-0.07 -0.35,-0.14 1.26,-4.27 0.35,0.07 -1.26,4.34 0,0 z m -4.9,-3.29 -0.07,-0.35 6.02,-0.91 0.07,0.35 -6.02,0.91 0,0 z m 5.81,-1.05 -1.26,-4.69 0.35,-0.14 1.26,4.76 -0.35,0.07 0,0 z m 0.28,0.14 -0.21,-0.28 6.58,-3.85 0.14,0.28 -6.51,3.85 0,0 z m 0.98,4.97 -1.26,-5.11 0.35,-0.07 1.26,5.11 -0.35,0.07 0,0 z m 3.08,-4.06 -4.2,-0.91 0.07,-0.35 4.2,0.91 -0.07,0.35 0,0 z m -1.26,12.74 -0.35,-0.14 1.47,-3.36 0.35,0.14 -1.47,3.36 0,0 z m -2.8,2.38 -0.21,-0.28 2.73,-2.24 0.21,0.21 -2.73,2.31 0,0 z m -0.07,0 -5.32,0 0,-0.35 5.32,0 0,0.35 0,0 z m -5.53,-0.14 0,-3.29 0.35,0 0,3.22 -0.35,0.07 0,0 z m 14.14,-1.19 -5.95,-0.91 0.07,-0.35 5.95,0.91 -0.07,0.35 0,0 z m -0.14,-0.14 -2.94,-7.77 0.35,-0.07 2.94,7.77 -0.35,0.07 0,0 z m 1.61,5.04 -7.49,-5.88 0.21,-0.28 7.49,5.88 -0.21,0.28 0,0 z m -8.89,1.4 -1.4,-5.04 0.35,-0.14 1.33,5.04 -0.28,0.14 0,0 z m 0.14,0.07 0,-0.35 8.82,-1.47 0.07,0.35 -8.89,1.47 0,0 z m 8.75,-1.47 -10.15,-3.57 0.07,-0.28 10.22,3.5 -0.14,0.35 0,0 z m 4.69,1.89 -4.69,-1.89 0.14,-0.35 4.69,1.96 -0.14,0.28 0,0 z m 3.57,4.41 -3.64,-4.48 0.28,-0.21 3.64,4.48 -0.28,0.21 0,0 z m 1.75,5.73999 -1.82,-5.73999 0.35,-0.14 1.82,5.80999 -0.35,0.07 0,0 z m -0.56,7.35 -0.35,-0.07 0.91,-7.35 0.35,0.07 -0.91,7.35 0,0 z m -3.78,5.46 -0.28,-0.21 3.78,-5.39 0.28,0.21 -3.78,5.39 0,0 z m -6.37,3.36 -0.14,-0.28 6.3,-3.36 0.14,0.28 -6.3,3.36 0,0 z m -5.18,1.12 -0.07,-0.35 5.11,-1.05 0.07,0.28 -5.11,1.12 0,0 z m -9.52,0.63 -0.07,-0.35 9.52,-0.63 0.07,0.35 -9.52,0.63 0,0 z m 0,0 -11.62,-0.63 0.07,-0.35 11.55,0.63 0,0.35 0,0 z m -11.41,-0.84 -0.35,0 0.42,-8.68 0.35,0 -0.42,8.68 0,0 z m 0.07,-8.68 -0.42,-8.4 0.35,-0.07 0.42,8.47 -0.35,0 0,0 z m 17.85,-18.96999 -6.65,-5.04 0.21,-0.28 6.65,5.04 -0.21,0.28 0,0 z m -10.5,-0.77 -0.28,-0.21 4.13,-4.34 0.21,0.21 -4.06,4.34 0,0 z m 3.85,4.76 -4.13,-4.76 0.28,-0.21 4.06,4.76 -0.21,0.21 0,0 z m 0.21,0.07 -0.21,-0.35 6.72,-3.99 0.14,0.28 -6.65,4.06 0,0 z m 6.58,-4.06 -10.78,-0.7 0,-0.35 10.78,0.7 0,0.35 0,0 z m 1.4,4.06 -8.05,0 0,-0.35 8.05,0 0,0.35 0,0 z m -0.21,-0.07 -1.33,-4.06 0.28,-0.14 1.4,4.06 -0.35,0.14 0,0 z m 8.61,-0.63 -9.87,-3.36 0.14,-0.28 9.87,3.36 -0.14,0.28 0,0 z m -8.4,0.7 -0.07,-0.35 8.54,-0.7 0,0.35 -8.47,0.7 0,0 z m 8.33,-0.84 -1.05,-4.83 0.35,-0.07 1.05,4.83 -0.35,0.07 0,0 z m -4.41,3.64 -4.06,-2.8 0.21,-0.28 4.06,2.8 -0.21,0.28 0,0 z m 1.82,3.77999 -1.89,-3.84999 0.28,-0.14 1.89,3.84999 -0.28,0.14 0,0 z m -0.63,4.76 -0.35,-0.07 0.98,-4.83 0.35,0.07 -0.98,4.83 0,0 z m -3.57,2.59 -0.21,-0.28 3.5,-2.45 0.21,0.28 -3.5,2.45 0,0 z m -4.83,1.12 -0.07,-0.35 4.76,-1.05 0.07,0.35 -4.76,1.05 0,0 z m -0.07,0 -4.83,-0.35 0.07,-0.35 4.83,0.35 -0.07,0.35 0,0 z m 7.49,-12.24999 -0.21,-0.28 4.48,-3.5 0.21,0.28 -4.48,3.5 0,0 z m 9.66,4.96999 -5.46,-8.53999 0.28,-0.14 5.46,8.46999 -0.28,0.21 0,0 z m 0.14,0.07 -8.05,-1.19 0.07,-0.35 7.98,1.19 0,0.35 0,0 z m -0.07,0 -9.94,-5.03999 0.14,-0.28 9.94,4.96999 -0.14,0.35 0,0 z m -5.25,-8.53999 -0.21,-0.28 3.64,-2.94 0.21,0.28 -3.64,2.94 0,0 z m 7.07,1.54 -7.21,-1.54 0.07,-0.35 7.21,1.54 -0.07,0.35 0,0 z m -1.61,6.85999 -0.28,-0.07 1.75,-6.99999 0.35,0.14 -1.82,6.92999 0,0 z m -0.07,0.14 -0.14,-0.35 3.64,-1.19 0.07,0.35 -3.57,1.19 0,0 z m -7.98,8.68 -1.26,-5.18 0.35,-0.07 1.26,5.18 -0.35,0.07 0,0 z m 0.28,0.14 -0.21,-0.28 6.44,-3.29 0.14,0.28 -6.37,3.29 0,0 z m 6.44,-3.43 -0.35,-0.07 1.33,-5.53 0.35,0.07 -1.33,5.53 0,0 z m -0.28,0.14 -6.72,-6.79 0.28,-0.21 6.72,6.72 -0.28,0.28 0,0 z m 0.07,0 -7.63,-1.89 0.07,-0.35 7.7,1.89 -0.14,0.35 0,0 z m 0.21,-0.07 -0.28,-0.21 4.97,-6.72 0.28,0.21 -4.97,6.72 0,0 z m 0,5.88 -0.35,-5.95 0.35,0 0.35,5.95 -0.35,0 0,0 z m 3.85,-5.18 -3.99,-0.63 0,-0.35 4.06,0.63 -0.07,0.35 0,0 z m -10.43,2.66 -9.52,-1.61 0.07,-0.35 9.52,1.61 -0.07,0.35 0,0 z m -0.07,0 -4.76,-2.66 0.14,-0.35 4.83,2.73 -0.21,0.28 0,0 z m 6.72,2.66 -6.65,-2.66 0.14,-0.35 6.65,2.73 -0.14,0.28 0,0 z m -24.99,-24.07999 -7.07,-2.17 0.07,-0.35 7.07,2.17 -0.07,0.35 0,0 z m -7.21,-2.31 -0.77,-13.72 0.35,0 0.77,13.65 -0.35,0.07 0,0 z m -0.07,13.57999 -0.35,0 0.42,-13.64999 0.35,0 -0.42,13.64999 0,0 z m -0.07,0.14 -0.21,-0.28 6.3,-5.10999 0.21,0.28 -6.3,5.10999 0,0 z m 6.37,-5.17999 -0.35,-0.07 1.19,-6.37 0.35,0.07 -1.19,6.37 0,0 z m -0.14,0.14 -0.07,-0.35 5.25,-1.61 0.07,0.35 -5.25,1.61 0,0 z m -5.74,13.36999 -0.35,-0.14 5.88,-13.50999 0.35,0.14 -5.88,13.50999 0,0 z m 5.53,1.68 -5.74,-1.61 0.07,-0.35 5.74,1.61 -0.07,0.35 0,0 z m 0.07,0 -0.14,-0.35 5.39,-1.96 0.14,0.35 -5.39,1.96 0,0 z m 7.84,2.66 -2.66,-4.76 0.28,-0.14 2.73,4.76 -0.35,0.14 0,0 z m -2.31,5.04 -0.35,-0.21 2.66,-4.97 0.35,0.14 -2.66,5.04 0,0 z m -0.35,-0.14 -0.07,-9.73 0.35,0 0.07,9.73 -0.35,0 0,0 z m -11.27,-0.49 -0.21,-0.21 6.09,-7.14 0.28,0.21 -6.16,7.14 0,0 z m 14.28,-4.41 -0.35,-0.14 2.1,-4.34 0.35,0.14 -2.1,4.34 0,0 z m 6.58,4.41 -6.86,-4.34 0.21,-0.28 6.86,4.34 -0.21,0.28 0,0 z m 5.04,-1.19 -0.35,-6.02 0.35,0 0.35,6.02 -0.35,0 0,0 z m -11.76,-3.15 -0.07,-0.28 11.62,-2.8 0.07,0.35 -11.62,2.73 0,0 z m 11.9,3.29 -11.97,-3.29 0.07,-0.28 12.04,3.29 -0.14,0.28 0,0 z m -22.75,-13.65 -3.5,-2.38 0.21,-0.28 3.5,2.38 -0.21,0.28 0,0 z m -3.22,-2.45 -0.35,-0.14 3.29,-8.04999 0.35,0.14 -3.29,8.04999 0,0 z m 3.22,-7.97999 -0.21,-0.28 4.2,-3.43 0.21,0.28 -4.2,3.43 0,0 z m 2.59,17.98999 -2.66,-7.63 0.28,-0.14 2.73,7.63 -0.35,0.14 0,0 z m 5.81,-10.08 -0.42,-6.64999 0.35,0 0.42,6.57999 -0.35,0.07 0,0 z m -0.14,7.98 -0.35,0 0.49,-8.05 0.35,0.07 -0.49,7.98 0,0 z m -5.32,5.88 -0.35,0 0,-3.85 0.35,0 0,3.85 0,0 z m -6.23,3.36 -0.21,-0.28 6.16,-3.22 0.14,0.28 -6.09,3.22 0,0 z m 11.13,0.35 -5.18,-3.57 0.21,-0.28 5.18,3.57 -0.21,0.28 0,0 z m -4.97,-3.57 -0.28,-0.28 5.25,-5.46 0.21,0.21 -5.18,5.53 0,0 z m -2.45,-40.31999 -1.26,-4.48 0.35,-0.14 1.19,4.55 -0.28,0.07 0,0 z m 0.07,0.14 -4.27,-0.91 0.07,-0.35 4.34,0.91 -0.14,0.35 0,0 z m 0.14,-0.07 -0.14,-0.28 6.86,-4.48 0.21,0.28 -6.93,4.48 0,0 z m -0.07,0.07 0,-0.35 7.56,-1.19 0.07,0.35 -7.63,1.19 0,0 z m 1.26,3.85 -1.4,-3.99 0.28,-0.14 1.47,3.99 -0.35,0.14 0,0 z m 3.85,0.7 -3.71,-0.56 0.07,-0.35 3.71,0.56 -0.07,0.35 0,0 z m -0.14,-0.07 -5.11,-4.55 0.28,-0.28 5.11,4.55 -0.28,0.28 0,0 z m 0.28,-0.07 -0.28,-0.14 2.45,-5.67 0.35,0.14 -2.52,5.67 0,0 z m 2.17,6.02 -2.45,-6.02 0.28,-0.14 2.52,6.09 -0.35,0.07 0,0 z m -5.39,-1.33 -0.77,-5.25 0.35,-0.07 0.77,5.25 -0.35,0.07 0,0 z m 0.35,0.07 -0.35,-0.21 2.94,-4.69 0.28,0.21 -2.87,4.69 0,0 z m 0.98,5.6 -1.33,-5.67 0.35,-0.07 1.33,5.67 -0.35,0.07 0,0 z m 4.2,-4.2 -5.39,-1.33 0.07,-0.35 5.39,1.33 -0.07,0.35 0,0 z m -10.99,2.17 -0.21,-0.35 5.74,-3.5 0.21,0.35 -5.74,3.5 0,0 z m -0.42,-7.84 -0.28,-0.21 3.99,-4.97 0.28,0.21 -3.99,4.97 0,0 z m 8.68,20.92999 -2.66,-4.68999 0.35,-0.14 2.59,4.61999 -0.28,0.21 0,0 z m -5.25,2.87 -0.14,-0.28 5.46,-2.87 0.14,0.35 -5.46,2.8 0,0 z m 5.53,-2.94 -0.28,-0.14 2.59,-6.15999 0.35,0.14 -2.66,6.15999 0,0 z m -2.73,10.43 -0.35,-0.07 2.8,-10.43 0.28,0.07 -2.73,10.43 0,0 z m 4.97,-1.96 -2.52,-8.47 0.28,-0.07 2.59,8.4 -0.35,0.14 0,0 z m 0.63,-7.91 -3.01,-0.42 0,-0.35 3.08,0.42 -0.07,0.35 0,0 z m -8.82,-8.11999 -2.8,-5.53 0.28,-0.21 2.87,5.6 -0.35,0.14 0,0 z m 3.08,3.01 -3.01,-2.94 0.21,-0.28 3.01,2.94 -0.21,0.28 0,0 z m -2.24,-16.03 -0.35,0 0.21,-5.39 0.35,0 -0.21,5.39 0,0 z m -3.36,7.42 -0.35,-0.14 3.36,-7.35 0.28,0.14 -3.29,7.35 0,0 z m 3.29,-7.28 -0.21,-0.28 1.61,-1.4 0.21,0.28 -1.61,1.4 0,0 z m 2.1,3.85 -2.38,-3.92 0.28,-0.14 2.45,3.85 -0.35,0.21 0,0 z m -2.24,-3.85 -3.85,-0.35 0.07,-0.35 3.78,0.35 0,0.35 0,0 z" />
      </g>
      <g
         transform="matrix(1.1875862,0,0,1.1875862,-8.832318,-192.23458)"
         id="text4147"
         style="font-style:normal;font-weight:normal;font-size:60px;line-height:125%;font-family:sans-serif;letter-spacing:0px;word-spacing:0px;fill:#00ffff;fill-opacity:1;stroke:#4f0763;stroke-width:1px;stroke-linecap:butt;stroke-linejoin:miter;stroke-opacity:1">
        <path
           inkscape:connector-curvature="0"
           id="path4152"
           style="font-style:italic;font-variant:normal;font-weight:normal;font-stretch:normal;font-family:Aroly;-inkscape-font-specification:'Aroly Italic';fill:#00ffff;stroke:#4f0763;stroke-opacity:1"
           d="m 50.88143,999.84218 q -0.12,0 -0.12,-0.18 l 0,-6.48 q 0,-0.12 0.12,-0.12 0.18,0 0.18,0.12 l 0,6.48 q 0,0.18 -0.18,0.18 z m 0,0 q 0,-0.06 -0.06,-0.06 -0.06,0 -0.06,-0.18 l 3.66,-6.48 q 0,-0.24 0.18,-0.06 0.24,0 0.06,0.18 l -3.6,6.48 q -0.12,0.12 -0.18,0.12 z m 0,-6.48 q -0.12,0 -0.12,-0.18 0,-0.18 0.12,-0.18 l 3.66,0 q 0.12,0 0.12,0.18 0,0.18 -0.12,0.18 l -3.66,0 z m 3.66,-0.06 q -0.18,0 -0.18,-0.12 0,-0.18 0.18,-0.18 l 5.34,0 q 0.12,0 0.12,0.18 0,0.12 -0.12,0.12 l -5.34,0 z m 5.34,3.3 q -0.18,-0.06 -0.18,-0.18 l 0,-3.24 q 0,-0.18 0.18,-0.18 0.12,0 0.12,0.18 l 0,3.24 q 0,0.18 -0.12,0.18 z m 0,0 q -0.06,0 -0.06,0 0,-0.06 -0.06,-0.06 l -5.34,-3.24 q -0.12,-0.06 0,-0.18 0,-0.24 0.18,-0.06 l 5.34,3.24 q 0.06,0.06 0.06,0.18 l -0.12,0.12 z m -9,3.24 -0.12,-0.12 q 0,-0.18 0.06,-0.18 l 4.08,-2.04 q 0.18,-0.18 0.18,0.06 0.18,0.18 -0.06,0.18 l -4.02,2.04 q -0.06,0 -0.06,0.06 0,0 -0.06,0 z m 4.08,-2.1 q -0.06,0 -0.18,-0.12 l -0.42,-4.44 q 0,-0.06 0.18,-0.18 0.12,0 0.12,0.18 l 0.42,4.44 q 0.12,0.12 -0.12,0.12 z m 0,0 q -0.12,0 -0.12,-0.06 -0.06,-0.12 0.06,-0.24 l 4.92,-1.14 q 0.18,-0.18 0.18,0.06 0,0.18 -0.12,0.18 l -4.86,1.2 -0.06,0 z m 4.86,4.68002 q -0.12,-0.12 -0.12,-0.18 l 0,-5.82002 q 0,-0.12 0.18,-0.12 0.12,0 0.12,0.12 l 0,5.82002 q 0,0.18 -0.18,0.18 z m 0,0 -0.06,-0.06 -4.92,-4.62002 q -0.12,-0.12 0,-0.24 0.12,-0.12 0.24,0 l 4.86,4.62002 q 0.12,0.12 0,0.24 -0.06,0.06 -0.12,0.06 z m -8.94,2.16 q 0,-0.06 -0.06,-0.06 -0.06,-0.06 -0.06,-0.18 l 4.08,-6.78002 q 0.06,-0.18 0.18,-0.06 0.24,0 0.06,0.18 l -4.02,6.78002 q -0.12,0.12 -0.18,0.12 z m 0,0 q -0.12,0 -0.12,-0.18 l 0,-4.74002 q 0,-0.12 0.12,-0.12 0.18,0 0.18,0.12 l 0,4.74002 q 0,0.18 -0.18,0.18 z m 2.7,2.16 q -0.06,0 -0.12,-0.06 l -2.64,-2.16 q -0.06,-0.06 0,-0.24 0,-0.18 0.18,0 l 2.64,2.16 q 0.12,0.18 0.06,0.24 -0.12,0.06 -0.12,0.06 z m 0,0 -0.06,0 q -0.12,0 -0.12,-0.18 l 1.38,-8.94002 q 0.06,-0.18 0.18,-0.18 0.18,0.12 0.12,0.18 l -1.38,9.00002 q 0,0.12 -0.12,0.12 z m 2.64,-2.76 q -0.06,0 -0.18,-0.12 l -1.26,-6.24002 q 0,-0.06 0.12,-0.18 0.18,0 0.18,0.12 l 1.26,6.24002 q 0,0.18 -0.12,0.18 z m -2.64,2.76 q -0.12,0 -0.12,-0.06 -0.12,-0.06 0,-0.18 l 2.64,-2.76 q 0.06,-0.06 0.18,0 0.12,0.12 0.06,0.18 l -2.64,2.76 q -0.12,0.06 -0.12,0.06 z m 2.64,-2.76 q -0.06,0 -0.18,-0.12 0,-0.12 0.12,-0.18 l 3.6,-1.56 q 0.12,-0.06 0.24,0.06 0,0.18 -0.12,0.18 l -3.6,1.62 -0.06,0 z m 3.6,3.18 q -0.18,0 -0.18,-0.12 l 0.06,-4.8 q 0,-0.12 0.12,-0.12 0.18,0 0.18,0.12 l -0.06,4.8 q 0,0.12 -0.12,0.12 z m 0,0 -0.12,0 -3.6,-3.24 q -0.12,-0.06 0,-0.18 0.06,-0.06 0.18,0 l 3.6,3.18 q 0.12,0.18 0.06,0.24 l -0.12,0 z m -3.54,2.28 q -0.12,0 -0.12,-0.06 l -2.7,-2.7 q -0.12,-0.06 0,-0.18 0.06,-0.06 0.18,0 l 2.76,2.7 0,0.18 q -0.12,0.06 -0.12,0.06 z m -0.06,0 q -0.12,0 -0.12,-0.18 l -0.06,-5.46 q 0,-0.12 0.12,-0.12 0.18,0 0.18,0.12 l 0.06,5.46 q 0,0.12 -0.18,0.18 z m 0,0 -0.12,-0.12 q 0,-0.12 0.06,-0.18 l 3.54,-2.22 q 0.18,-0.06 0.24,0.06 0.06,0.06 -0.06,0.18 l -3.54,2.22 q -0.06,0 -0.06,0.06 0,0 -0.06,0 z m 3.66,4.44 q -0.18,0 -0.18,-0.18 l -0.06,-6.66 q 0,-0.06 0.18,-0.18 0.12,0 0.12,0.18 l 0.06,6.66 q 0,0.18 -0.12,0.18 z m 0,0 q -0.12,0 -0.12,-0.06 l -3.6,-4.44 q -0.12,-0.12 0,-0.24 0.18,0 0.24,0.06 l 3.6,4.44 q 0,0.12 -0.06,0.18 -0.06,0.06 -0.06,0.06 z m -9,0.24 q -0.12,0 -0.12,-0.18 l 0,-9.54 q 0,-0.12 0.12,-0.12 0.18,0 0.18,0.12 l 0,9.54 q 0,0.18 -0.18,0.18 z m 0,0 0,-0.06 q -0.12,0 -0.12,-0.18 l 2.64,-7.32 q 0.06,-0.12 0.24,-0.12 0.12,0.12 0.06,0.18 l -2.64,7.38 q -0.12,0.12 -0.18,0.12 z m 0,0 q -0.12,0 -0.12,-0.12 0,-0.18 0.12,-0.18 l 3.54,-0.78 q 0.06,0 0.18,0.12 0,0.18 -0.12,0.18 l -3.54,0.72 q 0,0.06 -0.06,0.06 z m 3.54,-0.78 q -0.12,0 -0.12,-0.12 l -0.9,-6.6 q 0,-0.18 0.12,-0.18 0.18,0 0.18,0.12 l 0.9,6.66 q 0,0.12 -0.12,0.12 l -0.06,0 z m 0,0 -0.06,0 q -0.24,0 -0.06,-0.18 l 1.8,-3.96 q 0.06,-0.06 0.24,-0.06 0.12,0.12 0.06,0.18 l -1.86,3.96 q 0,0.06 -0.12,0.06 z m 5.46,0.54 -0.06,0 -5.4,-0.54 q -0.12,0 -0.12,-0.12 0,-0.18 0.12,-0.18 l 5.46,0.54 q 0.12,0 0.12,0.18 0,0.12 -0.12,0.12 z m -8.94,7.08 q -0.18,0 -0.18,-0.18 l 0,-6.84 q 0,-0.12 0.12,-0.12 0.18,0 0.18,0.12 l 0,6.9 q 0,0.12 -0.12,0.12 z m 3.12,0.3 -3.12,-0.3 q -0.18,0 -0.18,-0.18 0.12,-0.12 0.18,-0.12 l 3.12,0.3 q 0.3,0 0.12,0.18 0,0.12 -0.12,0.12 z m 0,0 q -0.12,0 -0.18,-0.06 l -3.12,-7.2 q 0,-0.18 0.06,-0.18 0.12,-0.06 0.24,0.06 l 3.12,7.2 q 0,0.18 -0.06,0.18 l -0.06,0 z m 0,0 q -0.18,0 -0.18,-0.12 l 0.42,-7.92 q 0,-0.18 0.12,-0.18 0.18,0 0.18,0.18 l -0.42,7.92 q 0,0.12 -0.12,0.12 z m 0,0 -0.12,0 q -0.12,-0.12 0,-0.24 l 5.82,-7.38 q 0.12,-0.12 0.18,-0.06 0.12,0.18 0.06,0.24 l -5.82,7.38 q -0.12,0.06 -0.12,0.06 z m 5.1,-3.3 -0.06,0 q -0.12,0 -0.12,-0.18 l 0.72,-4.08 q 0,-0.12 0.18,-0.12 0.12,0 0.12,0.18 l -0.72,4.08 q 0,0.12 -0.12,0.12 z m -5.1,3.3 q -0.12,0 -0.12,-0.06 -0.18,-0.18 0,-0.18 l 5.1,-3.36 q 0.12,-0.06 0.24,0.06 0.18,0.18 -0.06,0.18 l -5.1,3.36 -0.06,0 z m 6.24,2.04 q -0.06,0 -0.12,-0.06 -0.06,0 -0.06,-0.18 l 2.28,-4.02 q 0.12,-0.12 0.18,-0.06 0.24,0 0.06,0.18 l -2.22,4.08 q -0.06,0 -0.06,0.06 0,0 -0.06,0 z m 2.22,-4.08 -0.06,0 -3.36,-1.26 q -0.12,-0.12 -0.12,-0.24 0.12,-0.12 0.24,-0.06 l 3.36,1.32 q 0.12,0 0.12,0.18 -0.06,0.06 -0.18,0.06 z m -2.22,4.08 -0.06,0 -6.24,-2.04 q -0.12,0 -0.12,-0.18 0.12,-0.12 0.18,-0.12 l 6.24,2.04 q 0.12,0 0.12,0.18 0,0.12 -0.12,0.12 z m 0,0 q -0.18,0 -0.18,-0.12 l -1.14,-5.34 q 0,-0.18 0.12,-0.18 0.18,0 0.18,0.12 l 1.14,5.34 q 0,0.12 -0.12,0.18 z m 2.22,-4.08 q -0.12,0 -0.12,-0.12 0,-0.12 0.12,-0.18 l 4.5,-0.84 q 0.18,0 0.18,0.12 0,0.18 -0.12,0.18 l -4.5,0.84 -0.06,0 z m 4.56,-0.84 q -0.18,0 -0.18,-0.12 l 0,-5.04 q 0,-0.12 0.12,-0.12 0.18,0 0.18,0.12 l 0,5.04 q 0,0.12 -0.12,0.12 z m -4.56,0.84 -0.06,0 q -0.18,-0.12 -0.06,-0.24 l 4.5,-5.82 q 0.12,-0.18 0.24,-0.06 0.06,0.06 0,0.24 l -4.5,5.82 q 0,0.06 -0.12,0.06 z m -2.64,-5.34 q -0.18,0 -0.18,-0.18 0,-0.12 0.18,-0.12 l 7.14,-0.48 q 0.18,-0.06 0.18,0.12 0,0.06 -0.12,0.18 l -7.2,0.48 z m -0.72,4.08 q -0.12,-0.06 -0.12,-0.06 -0.06,-0.18 0,-0.24 l 7.92,-4.56 q 0.06,-0.06 0.24,0.06 0,0.18 -0.06,0.18 l -7.92,4.56 q -0.06,0.06 -0.06,0.06 z m 7.86,-4.56 -0.12,-0.12 -2.22,-3.18 q -0.12,-0.06 0,-0.18 0.18,-0.06 0.24,0.06 l 2.22,3.18 q 0.06,0.12 0,0.18 -0.06,0 -0.06,0.06 0,0 -0.06,0 z m -7.14,0.48 q -0.12,-0.06 -0.12,-0.06 -0.12,-0.12 0,-0.24 l 4.92,-3.66 q 0.12,-0.12 0.24,0.06 0.06,0.06 -0.06,0.18 l -4.92,3.66 q -0.06,0.06 -0.06,0.06 z m 4.92,-3.66 q -0.12,0 -0.18,-0.18 0,-0.12 0.12,-0.12 l 5.04,-0.78 q 0.18,0 0.18,0.12 0,0.18 -0.12,0.18 l -5.04,0.78 z m 10.02,0.84 -5.04,-1.62 q -0.12,-0.12 -0.12,-0.18 0.06,-0.12 0.18,-0.12 l 5.04,1.62 q 0.12,0 0.12,0.18 -0.12,0.12 -0.18,0.12 z m 4.5,4.38 q -0.06,0 -0.12,-0.06 l -4.44,-4.38 q -0.12,-0.06 0,-0.18 0.06,-0.06 0.18,0 l 4.5,4.38 q 0.06,0.12 0,0.18 -0.06,0.06 -0.12,0.06 z m 2.28,4.98 q -0.06,0 -0.18,-0.12 l -2.22,-4.92 q -0.06,-0.12 0.06,-0.24 0.18,0 0.18,0.12 l 2.28,4.92 q 0,0.18 -0.06,0.24 l -0.06,0 z m 0.6,5.64 q -0.18,0 -0.18,-0.12 l -0.6,-5.64 q 0,-0.18 0.12,-0.18 0.18,0 0.18,0.12 l 0.6,5.7 q 0,0.12 -0.12,0.12 z m -1.26,5.58 q -0.3,0 -0.12,-0.18 l 1.2,-5.58 q 0,-0.12 0.18,-0.12 0.12,0.12 0.12,0.18 l -1.2,5.58 q -0.12,0.12 -0.18,0.12 z m -3.36,5.16 -0.12,0 q -0.12,-0.12 0,-0.24 l 3.36,-5.16 q 0.06,-0.06 0.24,0 0.18,0 0,0.18 l -3.36,5.16 q -0.06,0.06 -0.12,0.06 z m -4.26,3 q -0.12,0 -0.12,-0.06 -0.12,-0.12 0,-0.24 l 4.26,-2.94 q 0.12,-0.12 0.24,0 0.06,0.12 -0.06,0.24 l -4.26,3 -0.06,0 z m -4.02,0.78 q -0.06,0 -0.18,-0.12 0,-0.18 0.12,-0.18 l 4.02,-0.78 q 0.18,0 0.18,0.12 0.18,0.18 -0.12,0.18 l -4.02,0.78 z m 0,0 -0.06,0 -3.78,-0.78 q -0.12,0 -0.12,-0.18 0.12,-0.12 0.18,-0.12 l 3.78,0.78 q 0.12,0 0.12,0.18 0,0.12 -0.12,0.12 z m -3.78,-0.78 -0.12,0 -3.18,-2.16 q -0.18,0 0,-0.18 0,-0.24 0.18,-0.06 l 3.18,2.1 q 0.12,0.18 0.06,0.24 -0.12,0.06 -0.12,0.06 z m -3.18,-2.1 q -0.12,0 -0.12,-0.06 l -2.52,-2.52 q -0.12,-0.12 0,-0.24 0.06,-0.06 0.18,0 l 2.52,2.52 q 0.12,0.12 0,0.24 -0.06,0.06 -0.06,0.06 z m -2.58,2.34 q -0.12,0 -0.12,-0.18 l 0,-4.86 q 0,-0.12 0.12,-0.12 0.18,0 0.18,0.12 l 0,4.86 q 0,0.18 -0.18,0.18 z m -4.86,0 q -0.12,0 -0.12,-0.12 0,-0.18 0.12,-0.18 l 4.86,0 q 0.18,0 0.18,0.12 0,0.18 -0.18,0.18 l -4.86,0 z m 0,0 -3.96,0 q -0.18,0 -0.18,-0.18 0,-0.12 0.18,-0.12 l 3.96,0 q 0.12,0 0.12,0.18 0,0.12 -0.12,0.12 z m -3.96,0 q -0.18,0 -0.18,-0.12 l 0,-4.92 q 0,-0.12 0.12,-0.12 0.18,0 0.18,0.12 l 0,4.92 q 0,0.12 -0.12,0.12 z m -0.06,-4.86 q -0.12,0 -0.12,-0.18 l 0,-6.3 q 0,-0.12 0.18,-0.12 0.12,0 0.12,0.12 l 0,6.36 q 0,0.12 -0.18,0.12 z m 0.06,-6.3 q -0.18,0 -0.18,-0.18 l 0,-7.86 q 0,-0.18 0.18,-0.18 0.12,0 0.12,0.18 l 0,7.86 q 0,0.18 -0.12,0.18 z m 0,0 -0.06,0 q -0.12,-0.06 -0.12,-0.24 l 3.12,-7.56 q 0.12,-0.12 0.24,-0.12 0.06,0.06 0.06,0.24 l -3.12,7.56 q 0,0.12 -0.12,0.12 z m 3.3,2.76 -0.12,0 -3.3,-2.82 q -0.12,-0.06 0,-0.18 0.12,-0.12 0.18,-0.06 l 3.36,2.82 q 0.06,0.12 0,0.18 -0.06,0.06 -0.12,0.06 z m 0,0 -0.06,0 q -0.24,0 -0.06,-0.18 l 2.28,-5.04 q 0.12,-0.12 0.24,-0.06 0.24,0 0.06,0.18 l -2.34,5.04 q 0,0.06 -0.12,0.06 z m -3.3,-2.76 q -0.06,0 -0.18,-0.12 0,-0.18 0.12,-0.18 l 5.64,-2.22 q 0.18,-0.18 0.18,0.06 0.18,0.18 -0.06,0.18 l -5.64,2.28 -0.06,0 z m 5.64,-2.28 -0.12,0 q -0.12,-0.12 0,-0.24 l 3.72,-3.36 q 0.18,0 0.24,0.06 0,0.12 -0.06,0.18 l -3.72,3.36 -0.06,0 z m 0,0 q -0.12,0 -0.18,-0.06 l -2.52,-5.34 q 0,-0.18 0.12,-0.18 0.12,-0.12 0.18,0.06 l 2.52,5.34 q 0.18,0.18 -0.06,0.18 l -0.06,0 z m -5.7,9.84 q -0.06,0 -0.06,-0.06 -0.06,0 -0.06,-0.18 l 3.36,-4.8 q 0.06,-0.06 0.18,0 0.18,0.06 0.06,0.18 l -3.36,4.8 q -0.06,0.06 -0.12,0.06 z m 4.02,3.6 -0.06,0 -4.02,-3.66 q -0.12,-0.06 0,-0.18 0.06,-0.06 0.18,-0.06 l 4.02,3.66 q 0.06,0.12 0,0.18 0,0.06 -0.12,0.06 z m 0,0 q -0.12,0 -0.12,-0.18 l 0.72,-4.08 q 0,-0.12 0.18,-0.12 0.12,0 0.12,0.18 l -0.72,4.08 q -0.12,0.12 -0.18,0.12 z m -4.02,-3.6 q -0.06,0 -0.18,-0.12 0,-0.18 0.18,-0.18 l 4.74,-0.48 q 0.18,0 0.18,0.12 0,0.18 -0.12,0.18 l -4.8,0.48 z m 4.8,-0.48 q -0.06,0 -0.18,-0.12 l -1.38,-4.26 q -0.06,-0.12 0.06,-0.24 0.18,0 0.18,0.12 l 1.44,4.32 q 0,0.12 -0.12,0.18 z m 0,0 q -0.18,0 -0.18,-0.12 0,-0.18 0.12,-0.18 l 4.14,-0.78 q 0.18,-0.18 0.18,0.12 0,0.06 -0.12,0.18 l -4.14,0.78 z m 4.08,4.08 -0.06,-0.06 -4.14,-4.08 q -0.12,-0.06 0,-0.18 0.06,-0.06 0.18,0 l 4.14,4.02 q 0.12,0.12 0,0.24 -0.06,0.06 -0.12,0.06 z m 0,-4.86 q 0,-0.06 -0.06,-0.06 l -5.52,-3.48 q -0.12,-0.06 -0.06,-0.24 0.06,-0.06 0.18,0 l 5.58,3.48 q 0.06,0.06 0.06,0.18 -0.12,0.12 -0.18,0.12 z m 0,0 q -0.12,0 -0.12,-0.12 l -3.24,-8.52 q 0,-0.18 0.12,-0.18 0.18,-0.18 0.18,0.06 l 3.24,8.52 q 0,0.18 -0.12,0.18 0,0.06 -0.06,0.06 z m 0.96,-6.3 q -0.12,0 -0.12,-0.18 l -0.48,-5.52 q 0,-0.18 0.12,-0.18 0.18,0 0.18,0.12 l 0.48,5.58 q 0,0.18 -0.18,0.18 z m 0,0 q -0.06,0 -0.06,-0.06 l -4.14,-2.22 q -0.18,-0.06 -0.06,-0.18 0,-0.24 0.18,-0.06 l 4.14,2.22 q 0.18,0.06 0.06,0.18 0,0.12 -0.12,0.12 z m 3.48,3.12 -0.12,0 -3.42,-3.18 q -0.18,-0.06 -0.06,-0.18 0.06,-0.06 0.24,-0.06 l 3.48,3.18 q 0.06,0.12 0,0.18 -0.06,0.06 -0.12,0.06 z m -4.44,3.18 q -0.06,-0.06 -0.12,-0.06 0,-0.18 0.06,-0.24 l 4.44,-3.12 q 0.06,-0.06 0.18,0 0.12,0.12 0,0.24 l -4.44,3.12 q -0.06,0 -0.06,0.06 0,0 -0.06,0 z m 0,0 q -0.12,-0.12 -0.12,-0.18 l 0.96,-6.3 q 0,-0.12 0.18,-0.12 0.12,0 0.12,0.18 l -0.96,6.24 q 0,0.18 -0.18,0.18 z m 4.44,-3.18 q -0.18,0 -0.18,-0.12 0,-0.18 0.18,-0.18 l 4.68,0 q 0.12,0 0.12,0.18 0,0.12 -0.12,0.12 l -4.68,0 z m 6.54,-11.52 q 0,-0.06 -0.06,-0.06 l -3.72,-2.04 q -0.06,-0.06 -0.06,-0.18 0.12,-0.12 0.24,-0.06 l 3.72,2.04 q 0.06,0 0.06,0.18 -0.12,0.12 -0.18,0.12 z m 1.8,3.84 q -0.12,0 -0.12,-0.06 l -1.8,-3.9 q 0,-0.18 0.06,-0.18 0.12,-0.06 0.24,0.06 l 1.8,3.9 q 0,0.12 -0.12,0.18 l -0.06,0 z m -0.18,4.56 -0.06,0 q -0.12,0 -0.12,-0.18 l 0.24,-4.5 q 0,-0.18 0.12,-0.18 0.18,0 0.18,0.18 l -0.24,4.5 q 0,0.18 -0.12,0.18 z m -3.48,3.12 q -0.06,0 -0.12,-0.06 -0.12,-0.06 0,-0.18 l 3.48,-3.18 q 0.12,0 0.18,0.06 0.06,0.12 0,0.18 l -3.42,3.12 q -0.06,0.06 -0.12,0.06 z m -1.86,-18.6 -0.06,-0.06 q -0.06,-0.06 -0.06,-0.18 l 2.82,-3.96 q 0,-0.24 0.18,-0.06 0.06,0.06 0.06,0.24 l -2.82,3.9 q 0,0.12 -0.12,0.12 z m 0,0 q -0.12,0 -0.12,-0.12 0,-0.18 0.12,-0.18 l 7.8,-2.34 q 0.12,0 0.18,0.12 0,0.06 -0.12,0.18 l -7.8,2.28 q 0,0.06 -0.06,0.06 z m 5.82,2.88 q -0.18,0 -0.18,-0.12 0,-0.06 0.12,-0.18 l 6.54,-0.84 q 0.12,0 0.12,0.12 0.06,0.18 -0.12,0.18 l -6.48,0.84 z m 0,0 -0.06,0 q -0.12,0 -0.12,-0.18 l 2.04,-5.22 q 0.06,-0.12 0.18,-0.12 0.12,0.06 0.12,0.18 l -2.04,5.28 q 0,0.06 -0.12,0.06 z m 0,0 -0.06,0 -5.82,-2.94 q -0.06,0 -0.06,-0.18 0.12,-0.12 0.24,-0.06 l 5.76,2.94 q 0.24,0 0.06,0.18 0,0.06 -0.12,0.06 z m -5.76,2.1 q -0.12,0 -0.18,-0.06 0,-0.18 0.12,-0.18 l 5.76,-2.16 q 0.18,0 0.18,0.12 0.18,0.18 -0.06,0.18 l -5.82,2.1 z m 3.66,2.1 q 0,-0.06 -0.06,-0.06 -0.06,0 -0.06,-0.18 l 2.04,-4.14 q 0.12,-0.18 0.24,-0.06 0.24,0 0.06,0.18 l -2.04,4.14 q -0.12,0.12 -0.18,0.12 z m 5.22,1.62 -0.06,0 -5.16,-1.68 q -0.12,0 -0.12,-0.18 0.12,-0.12 0.18,-0.06 l 5.16,1.68 q 0.12,0 0.12,0.18 0,0.06 -0.12,0.06 z m 0,0 q -0.12,0 -0.18,-0.06 l -3.06,-5.82 q -0.18,-0.18 0.06,-0.18 0.12,-0.12 0.18,0.06 l 3.12,5.82 q 0.06,0.06 -0.06,0.18 l -0.06,0 z m 0,0 -0.06,0 q -0.12,0 -0.12,-0.18 l 3.42,-6.66 q 0,-0.12 0.18,-0.12 0.12,0.18 0.06,0.24 l -3.36,6.66 q -0.06,0.06 -0.12,0.06 z m 0,0 q -0.12,0 -0.18,-0.06 0,-0.18 0.12,-0.18 l 5.64,-1.74 q 0.18,0 0.18,0.12 0,0.12 -0.12,0.18 l -5.64,1.68 z m 0,4.5 q -0.12,0 -0.12,-0.12 l -0.06,-4.5 q 0,-0.18 0.18,-0.18 0.12,0 0.12,0.18 l 0.06,4.44 q 0,0.18 -0.18,0.18 z m 0,0 q -0.06,0 -0.06,-0.06 -0.12,-0.06 0,-0.18 l 5.58,-6.18 q 0.06,-0.06 0.18,-0.06 0.12,0.12 0,0.24 l -5.58,6.18 q 0,0.06 -0.12,0.06 z m 0,0 q -0.12,0 -0.12,-0.12 0,-0.18 0.12,-0.18 l 6.12,-1.08 q 0.18,-0.18 0.18,0.12 0,0.06 -0.12,0.18 l -6.12,1.08 -0.06,0 z m -3.42,-2.28 q -0.06,0 -0.12,-0.06 -0.18,-0.18 0.06,-0.18 l 3.36,-2.22 q 0.12,-0.12 0.24,0.06 0,0.12 -0.06,0.18 l -3.36,2.22 -0.12,0 z m 3.42,2.28 -0.06,0 -3.42,-2.28 q -0.18,-0.12 -0.06,-0.24 0.12,-0.12 0.24,0 l 3.42,2.22 q 0.06,0.06 0.06,0.24 -0.06,0.06 -0.18,0.06 z m -3.6,2.28 q -0.06,0 -0.12,0 0,-0.06 -0.06,-0.06 0,-0.18 0.06,-0.24 l 3.66,-2.28 q 0.18,0 0.24,0.06 0,0.18 -0.06,0.24 l -3.66,2.22 -0.06,0.06 z m 1.02,6.3 q -0.06,0 -0.06,0 0,-0.06 -0.06,-0.06 l -4.44,-3.12 q -0.18,-0.12 -0.06,-0.24 0.06,-0.06 0.18,0 l 4.5,3.12 q 0.06,0.06 0.06,0.18 l -0.12,0.12 z m 0,0 q -0.18,0 -0.18,-0.18 l -1.02,-6.24 q 0,-0.18 0.12,-0.18 0.18,0 0.18,0.12 l 1.02,6.3 q 0,0.06 -0.12,0.18 z m 7.56,-3.54 -0.06,0 -8.58,-2.76 q -0.12,-0.06 -0.12,-0.18 0.12,-0.18 0.18,-0.12 l 8.64,2.76 q 0.12,0.12 0.12,0.18 -0.06,0.12 -0.18,0.12 z m -7.56,3.54 q -0.06,0 -0.18,-0.12 0,-0.18 0.12,-0.18 l 7.56,-3.54 q 0.18,0 0.18,0.12 0.12,0.12 -0.06,0.18 l -7.56,3.48 q -0.06,0.06 -0.06,0.06 z m 7.56,-3.54 q -0.06,0 -0.12,-0.06 l -4.92,-5.04 q -0.12,-0.06 0,-0.18 0.06,-0.06 0.18,0 l 4.98,5.04 q 0.06,0.12 0,0.18 -0.06,0.06 -0.12,0.06 z m -7.62,8.16 q -0.18,0 -0.18,-0.12 l 0.06,-4.68 q 0,-0.12 0.18,-0.12 0.12,0 0.12,0.12 l -0.06,4.68 q 0,0.12 -0.12,0.12 z m 4.26,-3 -0.06,0 -4.2,-1.68 q -0.12,0 -0.12,-0.18 0.12,-0.12 0.18,-0.06 l 4.26,1.62 q 0.12,0.12 0.06,0.18 0,0.12 -0.12,0.12 z m -15.24,0.9 -0.06,0 q -0.12,-0.12 -0.12,-0.24 l 1.92,-5.64 q 0,-0.12 0.18,-0.12 0.12,0.12 0.12,0.18 l -1.92,5.7 q 0,0.12 -0.12,0.12 z m 4.98,-1.92 q -0.12,0 -0.12,-0.06 l -3.12,-3.78 q -0.12,-0.12 0.06,-0.18 0.06,-0.06 0.18,0 l 3.12,3.78 q 0.06,0.12 -0.06,0.24 l -0.06,0 z m -4.98,1.92 q -0.06,0 -0.18,-0.12 0,-0.18 0.12,-0.18 l 4.98,-1.92 q 0.18,0 0.18,0.12 0.18,0.18 -0.06,0.18 l -4.98,1.92 -0.06,0 z m 4.98,-1.92 -0.06,0 q -0.12,-0.12 -0.12,-0.18 l 1.62,-3.78 q 0,-0.12 0.18,-0.12 0.12,0.12 0.06,0.24 l -1.56,3.78 q 0,0.06 -0.12,0.06 z m 6,4.02 -0.12,0 -6,-4.02 q -0.12,-0.12 0,-0.24 0,-0.18 0.18,0 l 6,3.96 q 0.12,0.18 0.06,0.24 -0.06,0.06 -0.12,0.06 z m -6,-4.02 q -0.18,0 -0.18,-0.12 0,-0.18 0.12,-0.18 l 6.06,-0.6 q 0.18,-0.06 0.18,0.12 0,0.06 -0.12,0.18 l -6.06,0.6 z m 1.98,4.8 q -0.06,0 -0.12,-0.06 0,0 -0.06,0 l -1.98,-4.8 q 0,-0.12 0.12,-0.24 0.18,0 0.18,0.12 l 1.98,4.8 q 0.06,0.06 -0.06,0.18 l -0.06,0 z" />
      </g>
    </g>
  </g>
</svg>
