<?xml version="1.0" encoding="UTF-8" standalone="no"?>
<!-- Created with Inkscape (http://www.inkscape.org/) -->

<svg
   xmlns:dc="http://purl.org/dc/elements/1.1/"
   xmlns:cc="http://creativecommons.org/ns#"
   xmlns:rdf="http://www.w3.org/1999/02/22-rdf-syntax-ns#"
   xmlns:svg="http://www.w3.org/2000/svg"
   xmlns="http://www.w3.org/2000/svg"
   xmlns:sodipodi="http://sodipodi.sourceforge.net/DTD/sodipodi-0.dtd"
   xmlns:inkscape="http://www.inkscape.org/namespaces/inkscape"
   width="127"
   height="127"
   viewBox="0 0 127 127"
   id="svg2"
   version="1.1"
   inkscape:version="0.91 r13725"
   sodipodi:docname="icon.svg">
  <defs
     id="defs4" />
  <sodipodi:namedview
     id="base"
     pagecolor="#ffffff"
     bordercolor="#666666"
     borderopacity="1.0"
     inkscape:pageopacity="0.0"
     inkscape:pageshadow="2"
     inkscape:zoom="5.6"
     inkscape:cx="-1.110313"
     inkscape:cy="71.874346"
     inkscape:document-units="px"
     inkscape:current-layer="layer1"
     showgrid="false"
     units="px"
     width="100px"
     inkscape:window-width="1920"
     inkscape:window-height="1017"
     inkscape:window-x="-8"
     inkscape:window-y="-8"
     inkscape:window-maximized="1"
     fit-margin-top="20"
     fit-margin-left="20"
     fit-margin-right="20"
     fit-margin-bottom="20" />
  <metadata
     id="metadata7">
    <rdf:RDF>
      <cc:Work
         rdf:about="">
        <dc:format>image/svg+xml</dc:format>
        <dc:type
           rdf:resource="http://purl.org/dc/dcmitype/StillImage" />
        <dc:title></dc:title>
      </cc:Work>
    </rdf:RDF>
  </metadata>
  <g
     inkscape:label="Layer 1"
     inkscape:groupmode="layer"
     id="layer1"
     transform="translate(12.840844,-938.3708)"
     style="display:inline">
    <g
       id="g4224"
       transform="translate(2.7500002,-1.107143)">
      <g
         id="text4173"
         style="font-style:normal;font-weight:normal;font-size:60px;line-height:125%;font-family:sans-serif;letter-spacing:0px;word-spacing:0px;fill:#000000;fill-opacity:1;stroke:#008080;stroke-width:1px;stroke-linecap:butt;stroke-linejoin:miter;stroke-opacity:1">
        <path
           id="path4219"
           style="font-style:italic;font-variant:normal;font-weight:normal;font-stretch:normal;font-size:90px;line-height:125%;font-family:Aroly;-inkscape-font-specification:'Aroly, Italic';text-align:start;writing-mode:lr-tb;text-anchor:start;fill:#00ffff;stroke:#008080"
           d="m 10.85,966.23077 -4.05,-7.29 0.45,-0.18 3.96,7.29 -0.36,0.18 0,0 z m -3.69,4.68 -0.36,-0.27 4.05,-4.68 0.36,0.36 -4.05,4.59 0,0 z m -0.36,-0.18 0,-11.88 0.45,0 0,11.88 -0.45,0 0,0 z m 4.32,-4.41 -0.27,-0.36 8.82,-7.11 0.27,0.36 -8.82,7.11 0,0 z m 8.64,-7.02 -12.78,-0.18 0,-0.45 12.78,0.18 0,0.45 0,0 z m 1.44,6.84 -1.62,-7.02 0.45,-0.09 1.62,7.02 -0.45,0.09 0,0 z m -10.17,0.18 0,-0.45 10.44,0 0,0.45 -10.44,0 0,0 z m 8.82,-7.02 -0.09,-0.45 7.83,-0.18 0,0.45 -7.74,0.18 0,0 z m 17.73,0.9 -10.08,-1.08 0.09,-0.45 9.99,1.08 0,0.45 0,0 z m 7.11,4.14 -7.2,-4.14 0.18,-0.36 7.2,4.05 -0.18,0.45 0,0 z m 3.69,6.48 -3.78,-6.57 0.36,-0.27 3.78,6.66 -0.36,0.18 0,0 z m 0.72,7.47 -0.81,-7.56 0.45,0 0.81,7.56 -0.45,0 0,0 z m -1.53,6.3 -0.45,-0.09 1.98,-6.3 0.45,0.18 -1.98,6.21 0,0 z m -5.13,5.67 -0.36,-0.27 5.04,-5.58 0.36,0.27 -5.04,5.58 0,0 z m -0.36,-0.09 -1.98,-6.3 0.45,-0.09 1.98,6.3 -0.45,0.09 0,0 z m 5.22,-5.4 -7.02,-0.72 0.09,-0.45 7.02,0.72 -0.09,0.45 0,0 z m -6.75,-0.9 -0.45,-0.09 1.98,-6.93 0.45,0.18 -1.98,6.84 0,0 z m 6.57,0.81 -5.04,-7.65 0.36,-0.18 5.04,7.56 -0.36,0.27 0,0 z m -4.59,-7.74 -0.45,-0.09 2.43,-12.78 0.45,0.09 -2.43,12.78 0,0 z m -0.09,0.18 -0.36,-0.36 6.3,-6.21 0.27,0.36 -6.21,6.21 0,0 z m -0.27,0 -5.76,-3.06 0.18,-0.45 5.76,3.15 -0.18,0.36 0,0 z m -7.38,1.26 -0.45,-0.18 1.98,-4.5 0.45,0.18 -1.98,4.5 0,0 z m 1.89,-4.41 -0.36,-0.27 8.28,-9.72 0.36,0.27 -8.28,9.72 0,0 z m -0.36,-0.09 -1.98,-7.65 0.45,-0.18 1.98,7.74 -0.45,0.09 0,0 z m -1.71,-7.56 -0.09,-0.45 10.17,-1.98 0.09,0.45 -10.17,1.98 0,0 z m -3.69,5.31 -0.36,-0.27 3.78,-5.4 0.36,0.27 -3.78,5.4 0,0 z m 2.43,2.34 -2.7,-2.25 0.27,-0.36 2.7,2.25 -0.27,0.36 0,0 z m 0.99,4.32 -1.08,-4.41 0.45,-0.09 1.08,4.41 -0.45,0.09 0,0 z m 2.25,-4.23 -3.06,0 0,-0.45 3.06,0 0,0.45 0,0 z m -2.88,-0.18 -0.45,-0.09 1.08,-7.65 0.45,0 -1.08,7.74 0,0 z m 1.08,-7.65 -0.45,-0.18 3.06,-6.12 0.36,0.18 -2.97,6.12 0,0 z m -13.23,0.09 -0.36,-0.36 6.21,-7.2 0.36,0.27 -6.21,7.29 0,0 z m 0.54,4.14 -0.9,-4.32 0.45,-0.09 0.9,4.32 -0.45,0.09 0,0 z m 0.45,10.89 -0.45,0 0,-10.98 0.45,0 0,10.98 0,0 z m 5.04,-10.71 -5.22,0 0,-0.45 5.22,0 0,0.45 0,0 z m 3.15,1.08 -3.24,-1.08 0.09,-0.45 3.24,1.08 -0.09,0.45 0,0 z m -3.33,-1.08 -6.12,-4.32 0.27,-0.36 6.12,4.32 -0.27,0.36 0,0 z m 0.36,-0.09 -0.45,-0.18 1.62,-5.49 0.45,0.09 -1.62,5.58 0,0 z m -6.3,-4.23 -0.09,-0.45 7.74,-1.17 0.09,0.45 -7.74,1.17 0,0 z m 7.47,-1.35 -1.62,-6.03 0.45,-0.18 1.62,6.12 -0.45,0.09 0,0 z m 0.36,0.18 -0.27,-0.36 8.46,-4.95 0.18,0.36 -8.37,4.95 0,0 z m 1.26,6.39 -1.62,-6.57 0.45,-0.09 1.62,6.57 -0.45,0.09 0,0 z m 3.96,-5.22 -5.4,-1.17 0.09,-0.45 5.4,1.17 -0.09,0.45 0,0 z m -1.62,16.38 -0.45,-0.18 1.89,-4.32 0.45,0.18 -1.89,4.32 0,0 z m -3.6,3.06 -0.27,-0.36 3.51,-2.88 0.27,0.27 -3.51,2.97 0,0 z m -0.09,0 -6.84,0 0,-0.45 6.84,0 0,0.45 0,0 z m -7.11,-0.18 0,-4.23 0.45,0 0,4.14 -0.45,0.09 0,0 z m 18.18,-1.53 -7.65,-1.17 0.09,-0.45 7.65,1.17 -0.09,0.45 0,0 z m -0.18,-0.18 -3.78,-9.99 0.45,-0.09 3.78,9.99 -0.45,0.09 0,0 z m 2.07,6.48 -9.63,-7.56 0.27,-0.36 9.63,7.56 -0.27,0.36 0,0 z m -11.43,1.8 -1.8,-6.48 0.45,-0.18 1.71,6.48 -0.36,0.18 0,0 z m 0.18,0.09 0,-0.45 11.34,-1.89 0.09,0.45 -11.43,1.89 0,0 z m 11.25,-1.89 -13.05,-4.59 0.09,-0.36 13.14,4.5 -0.18,0.45 0,0 z m 6.03,2.43 -6.03,-2.43 0.18,-0.45 6.03,2.52 -0.18,0.36 0,0 z m 4.59,5.67 -4.68,-5.76 0.36,-0.27 4.68,5.76 -0.36,0.27 0,0 z m 2.25,7.38003 -2.34,-7.38003 0.45,-0.18 2.34,7.47003 -0.45,0.09 0,0 z m -0.72,9.45 -0.45,-0.09 1.17,-9.45 0.45,0.09 -1.17,9.45 0,0 z m -4.86,7.02 -0.36,-0.27 4.86,-6.93 0.36,0.27 -4.86,6.93 0,0 z m -8.19,4.32 -0.18,-0.36 8.1,-4.32 0.18,0.36 -8.1,4.32 0,0 z m -6.66,1.44 -0.09,-0.45 6.57,-1.35 0.09,0.36 -6.57,1.44 0,0 z m -12.24,0.81 -0.09,-0.45 12.24,-0.81 0.09,0.45 -12.24,0.81 0,0 z m 0,0 -14.94,-0.81 0.09,-0.45 14.85,0.81 0,0.45 0,0 z m -14.67,-1.08 -0.45,0 0.54,-11.16 0.45,0 -0.54,11.16 0,0 z m 0.09,-11.16 -0.54,-10.8 0.45,-0.09 0.54,10.89 -0.45,0 0,0 z m 22.95,-24.39003 -8.55,-6.48 0.27,-0.36 8.55,6.48 -0.27,0.36 0,0 z m -13.5,-0.99 -0.36,-0.27 5.31,-5.58 0.27,0.27 -5.22,5.58 0,0 z m 4.95,6.12 -5.31,-6.12 0.36,-0.27 5.22,6.12 -0.27,0.27 0,0 z m 0.27,0.09 -0.27,-0.45 8.64,-5.13 0.18,0.36 -8.55,5.22 0,0 z m 8.46,-5.22 -13.86,-0.9 0,-0.45 13.86,0.9 0,0.45 0,0 z m 1.8,5.22 -10.35,0 0,-0.45 10.35,0 0,0.45 0,0 z m -0.27,-0.09 -1.71,-5.22 0.36,-0.18 1.8,5.22 -0.45,0.18 0,0 z m 11.07,-0.81 -12.69,-4.32 0.18,-0.36 12.69,4.32 -0.18,0.36 0,0 z m -10.8,0.9 -0.09,-0.45 10.98,-0.9 0,0.45 -10.89,0.9 0,0 z m 10.71,-1.08 -1.35,-6.21 0.45,-0.09 1.35,6.21 -0.45,0.09 0,0 z m -5.67,4.68003 -5.22,-3.60003 0.27,-0.36 5.22,3.60003 -0.27,0.36 0,0 z m 2.34,4.86 -2.43,-4.95 0.36,-0.18 2.43,4.95 -0.36,0.18 0,0 z m -0.81,6.12 -0.45,-0.09 1.26,-6.21 0.45,0.09 -1.26,6.21 0,0 z m -4.59,3.33 -0.27,-0.36 4.5,-3.15 0.27,0.36 -4.5,3.15 0,0 z m -6.21,1.44 -0.09,-0.45 6.12,-1.35 0.09,0.45 -6.12,1.35 0,0 z m -0.09,0 -6.21,-0.45 0.09,-0.45 6.21,0.45 -0.09,0.45 0,0 z m 9.63,-15.75 -0.27,-0.36 5.76,-4.50003 0.27,0.36 -5.76,4.50003 0,0 z m 12.42,6.39 -7.02,-10.98003 0.36,-0.18 7.02,10.89003 -0.36,0.27 0,0 z m 0.18,0.09 -10.35,-1.53 0.09,-0.45 10.26,1.53 0,0.45 0,0 z m -0.09,0 -12.78,-6.48 0.18,-0.36 12.78,6.39 -0.18,0.45 0,0 z m -6.75,-10.98003 -0.27,-0.36 4.68,-3.78 0.27,0.36 -4.68,3.78 0,0 z m 9.09,1.98 -9.27,-1.98 0.09,-0.45 9.27,1.98 -0.09,0.45 0,0 z m -2.07,8.82003 -0.36,-0.09 2.25,-9.00003 0.45,0.18 -2.34,8.91003 0,0 z m -0.09,0.18 -0.18,-0.45 4.68,-1.53 0.09,0.45 -4.59,1.53 0,0 z m -10.26,11.16 -1.62,-6.66 0.45,-0.09 1.62,6.66 -0.45,0.09 0,0 z m 0.36,0.18 -0.27,-0.36 8.28,-4.23 0.18,0.36 -8.19,4.23 0,0 z m 8.28,-4.41 -0.45,-0.09 1.71,-7.11 0.45,0.09 -1.71,7.11 0,0 z m -0.36,0.18 -8.64,-8.73 0.36,-0.27 8.64,8.64 -0.36,0.36 0,0 z m 0.09,0 -9.81,-2.43 0.09,-0.45 9.9,2.43 -0.18,0.45 0,0 z m 0.27,-0.09 -0.36,-0.27 6.39,-8.64 0.36,0.27 -6.39,8.64 0,0 z m 0,7.56 -0.45,-7.65 0.45,0 0.45,7.65 -0.45,0 0,0 z m 4.95,-6.66 -5.13,-0.81 0,-0.45 5.22,0.81 -0.09,0.45 0,0 z m -13.41,3.42 -12.24,-2.07 0.09,-0.45 12.24,2.07 -0.09,0.45 0,0 z m -0.09,0 -6.12,-3.42 0.18,-0.45 6.21,3.51 -0.27,0.36 0,0 z m 8.64,3.42 -8.55,-3.42 0.18,-0.45 8.55,3.51 -0.18,0.36 0,0 z m -32.13,-30.96003 -9.09,-2.79 0.09,-0.45 9.09,2.79 -0.09,0.45 0,0 z m -9.27,-2.97 -0.99,-17.64 0.45,0 0.99,17.55 -0.45,0.09 0,0 z m -0.09,17.46003 -0.45,0 0.54,-17.55003 0.45,0 -0.54,17.55003 0,0 z m -0.09,0.18 -0.27,-0.36 8.1,-6.57003 0.27,0.36 -8.1,6.57003 0,0 z m 8.19,-6.66003 -0.45,-0.09 1.53,-8.19 0.45,0.09 -1.53,8.19 0,0 z m -0.18,0.18 -0.09,-0.45 6.75,-2.07 0.09,0.45 -6.75,2.07 0,0 z m -7.38,17.19003 -0.45,-0.18 7.56,-17.37003 0.45,0.18 -7.56,17.37003 0,0 z m 7.11,2.16 -7.38,-2.07 0.09,-0.45 7.38,2.07 -0.09,0.45 0,0 z m 0.09,0 -0.18,-0.45 6.93,-2.52 0.18,0.45 -6.93,2.52 0,0 z m 10.08,3.42 -3.42,-6.12 0.36,-0.18 3.51,6.12 -0.45,0.18 0,0 z m -2.97,6.48 -0.45,-0.27 3.42,-6.39 0.45,0.18 -3.42,6.48 0,0 z m -0.45,-0.18 -0.09,-12.51 0.45,0 0.09,12.51 -0.45,0 0,0 z m -14.49,-0.63 -0.27,-0.27 7.83,-9.18 0.36,0.27 -7.92,9.18 0,0 z m 18.36,-5.67 -0.45,-0.18 2.7,-5.58 0.45,0.18 -2.7,5.58 0,0 z m 8.46,5.67 -8.82,-5.58 0.27,-0.36 8.82,5.58 -0.27,0.36 0,0 z m 6.48,-1.53 -0.45,-7.74 0.45,0 0.45,7.74 -0.45,0 0,0 z m -15.12,-4.05 -0.09,-0.36 14.94,-3.6 0.09,0.45 -14.94,3.51 0,0 z m 15.3,4.23 -15.39,-4.23 0.09,-0.36 15.48,4.23 -0.18,0.36 0,0 z m -29.25,-17.55 -4.5,-3.06 0.27,-0.36 4.5,3.06 -0.27,0.36 0,0 z m -4.14,-3.15 -0.45,-0.18 4.23,-10.35003 0.45,0.18 -4.23,10.35003 0,0 z m 4.14,-10.26003 -0.27,-0.36 5.4,-4.41 0.27,0.36 -5.4,4.41 0,0 z m 3.33,23.13003 -3.42,-9.81 0.36,-0.18 3.51,9.81 -0.45,0.18 0,0 z m 7.47,-12.96 -0.54,-8.55003 0.45,0 0.54,8.46003 -0.45,0.09 0,0 z m -0.18,10.26 -0.45,0 0.63,-10.35 0.45,0.09 -0.63,10.26 0,0 z m -6.84,7.56 -0.45,0 0,-4.95 0.45,0 0,4.95 0,0 z m -8.01,4.32 -0.27,-0.36 7.92,-4.14 0.18,0.36 -7.83,4.14 0,0 z m 14.31,0.45 -6.66,-4.59 0.27,-0.36 6.66,4.59 -0.27,0.36 0,0 z m -6.39,-4.59 -0.36,-0.36 6.75,-7.02 0.27,0.27 -6.66,7.11 0,0 z m -3.15,-51.84003 -1.62,-5.76 0.45,-0.18 1.53,5.85 -0.36,0.09 0,0 z m 0.09,0.18 -5.49,-1.17 0.09,-0.45 5.58,1.17 -0.18,0.45 0,0 z m 0.18,-0.09 -0.18,-0.36 8.82,-5.76 0.27,0.36 -8.91,5.76 0,0 z m -0.09,0.09 0,-0.45 9.72,-1.53 0.09,0.45 -9.81,1.53 0,0 z m 1.62,4.95 -1.8,-5.13 0.36,-0.18 1.89,5.13 -0.45,0.18 0,0 z m 4.95,0.9 -4.77,-0.72 0.09,-0.45 4.77,0.72 -0.09,0.45 0,0 z m -0.18,-0.09 -6.57,-5.85 0.36,-0.36 6.57,5.85 -0.36,0.36 0,0 z m 0.36,-0.09 -0.36,-0.18 3.15,-7.29 0.45,0.18 -3.24,7.29 0,0 z m 2.79,7.74 -3.15,-7.74 0.36,-0.18 3.24,7.83 -0.45,0.09 0,0 z m -6.93,-1.71 -0.99,-6.75 0.45,-0.09 0.99,6.75 -0.45,0.09 0,0 z m 0.45,0.09 -0.45,-0.27 3.78,-6.03 0.36,0.27 -3.69,6.03 0,0 z m 1.26,7.2 -1.71,-7.29 0.45,-0.09 1.71,7.29 -0.45,0.09 0,0 z m 5.4,-5.4 -6.93,-1.71 0.09,-0.45 6.93,1.71 -0.09,0.45 0,0 z m -14.13,2.79 -0.27,-0.45 7.38,-4.5 0.27,0.45 -7.38,4.5 0,0 z m -0.54,-10.08 -0.36,-0.27 5.13,-6.39 0.36,0.27 -5.13,6.39 0,0 z m 11.16,26.91003 -3.42,-6.03003 0.45,-0.18 3.33,5.94003 -0.36,0.27 0,0 z m -6.75,3.69 -0.18,-0.36 7.02,-3.69 0.18,0.45 -7.02,3.6 0,0 z m 7.11,-3.78 -0.36,-0.18 3.33,-7.92003 0.45,0.18 -3.42,7.92003 0,0 z m -3.51,13.41 -0.45,-0.09 3.6,-13.41 0.36,0.09 -3.51,13.41 0,0 z m 6.39,-2.52 -3.24,-10.89 0.36,-0.09 3.33,10.8 -0.45,0.18 0,0 z m 0.81,-10.17 -3.87,-0.54 0,-0.45 3.96,0.54 -0.09,0.45 0,0 z m -11.34,-10.44003 -3.6,-7.11 0.36,-0.27 3.69,7.2 -0.45,0.18 0,0 z m 3.96,3.87 -3.87,-3.78 0.27,-0.36 3.87,3.78 -0.27,0.36 0,0 z m -2.88,-20.61 -0.45,0 0.27,-6.93 0.45,0 -0.27,6.93 0,0 z m -4.32,9.54 -0.45,-0.18 4.32,-9.45 0.36,0.18 -4.23,9.45 0,0 z m 4.23,-9.36 -0.27,-0.36 2.07,-1.8 0.27,0.36 -2.07,1.8 0,0 z m 2.7,4.95 -3.06,-5.04 0.36,-0.18 3.15,4.95 -0.45,0.27 0,0 z m -2.88,-4.95 -4.95,-0.45 0.09,-0.45 4.86,0.45 0,0.45 0,0 z"
           inkscape:connector-curvature="0" />
      </g>
      <g
         id="text4177"
         style="font-style:normal;font-weight:normal;font-size:60px;line-height:125%;font-family:sans-serif;letter-spacing:0px;word-spacing:0px;fill:#d400aa;fill-opacity:1;stroke:#d400aa;stroke-width:1px;stroke-linecap:butt;stroke-linejoin:miter;stroke-opacity:1">
        <path
           id="path4222"
           style="font-style:italic;font-variant:normal;font-weight:normal;font-stretch:normal;font-size:90px;line-height:125%;font-family:Aroly;-inkscape-font-specification:'Aroly, Italic';text-align:start;writing-mode:lr-tb;text-anchor:start;fill:#d400aa;stroke:#d400aa"
           d="m 44.34,983.76077 q -0.18,0 -0.18,-0.27 l 0,-9.72 q 0,-0.18 0.18,-0.18 0.27,0 0.27,0.18 l 0,9.72 q 0,0.27 -0.27,0.27 z m 0,0 q 0,-0.09 -0.09,-0.09 -0.09,0 -0.09,-0.27 l 5.49,-9.72 q 0,-0.36 0.27,-0.09 0.36,0 0.09,0.27 l -5.4,9.72 q -0.18,0.18 -0.27,0.18 z m 0,-9.72 q -0.18,0 -0.18,-0.27 0,-0.27 0.18,-0.27 l 5.49,0 q 0.18,0 0.18,0.27 0,0.27 -0.18,0.27 l -5.49,0 z m 5.49,-0.09 q -0.27,0 -0.27,-0.18 0,-0.27 0.27,-0.27 l 8.01,0 q 0.18,0 0.18,0.27 0,0.18 -0.18,0.18 l -8.01,0 z m 8.01,4.95 q -0.27,-0.09 -0.27,-0.27 l 0,-4.86 q 0,-0.27 0.27,-0.27 0.18,0 0.18,0.27 l 0,4.86 q 0,0.27 -0.18,0.27 z m 0,0 q -0.09,0 -0.09,0 0,-0.09 -0.09,-0.09 l -8.01,-4.86 q -0.18,-0.09 0,-0.27 0,-0.36 0.27,-0.09 l 8.01,4.86 q 0.09,0.09 0.09,0.27 l -0.18,0.18 z m -13.5,4.86 -0.18,-0.18 q 0,-0.27 0.09,-0.27 l 6.12,-3.06 q 0.27,-0.27 0.27,0.09 0.27,0.27 -0.09,0.27 l -6.03,3.06 q -0.09,0 -0.09,0.09 0,0 -0.09,0 z m 6.12,-3.15 q -0.09,0 -0.27,-0.18 l -0.63,-6.66 q 0,-0.09 0.27,-0.27 0.18,0 0.18,0.27 l 0.63,6.66 q 0.18,0.18 -0.18,0.18 z m 0,0 q -0.18,0 -0.18,-0.09 -0.09,-0.18 0.09,-0.36 l 7.38,-1.71 q 0.27,-0.27 0.27,0.09 0,0.27 -0.18,0.27 l -7.29,1.8 -0.09,0 z m 7.29,7.02 q -0.18,-0.18 -0.18,-0.27 l 0,-8.73 q 0,-0.18 0.27,-0.18 0.18,0 0.18,0.18 l 0,8.73 q 0,0.27 -0.27,0.27 z m 0,0 -0.09,-0.09 -7.38,-6.93 q -0.18,-0.18 0,-0.36 0.18,-0.18 0.36,0 l 7.29,6.93 q 0.18,0.18 0,0.36 -0.09,0.09 -0.18,0.09 z m -13.41,3.24 q 0,-0.09 -0.09,-0.09 -0.09,-0.09 -0.09,-0.27 l 6.12,-10.17 q 0.09,-0.27 0.27,-0.09 0.36,0 0.09,0.27 l -6.03,10.17 q -0.18,0.18 -0.27,0.18 z m 0,0 q -0.18,0 -0.18,-0.27 l 0,-7.11 q 0,-0.18 0.18,-0.18 0.27,0 0.27,0.18 l 0,7.11 q 0,0.27 -0.27,0.27 z m 4.05,3.24 q -0.09,0 -0.18,-0.09 l -3.96,-3.24 q -0.09,-0.09 0,-0.36 0,-0.27 0.27,0 l 3.96,3.24 q 0.18,0.27 0.09,0.36 -0.18,0.09 -0.18,0.09 z m 0,0 -0.09,0 q -0.18,0 -0.18,-0.27 l 2.07,-13.41 q 0.09,-0.27 0.27,-0.27 0.27,0.18 0.18,0.27 l -2.07,13.5 q 0,0.18 -0.18,0.18 z m 3.96,-4.14 q -0.09,0 -0.27,-0.18 l -1.89,-9.36 q 0,-0.09 0.18,-0.27 0.27,0 0.27,0.18 l 1.89,9.36 q 0,0.27 -0.18,0.27 z m -3.96,4.14 q -0.18,0 -0.18,-0.09 -0.18,-0.09 0,-0.27 l 3.96,-4.14 q 0.09,-0.09 0.27,0 0.18,0.18 0.09,0.27 l -3.96,4.14 q -0.18,0.09 -0.18,0.09 z m 3.96,-4.14 q -0.09,0 -0.27,-0.18 0,-0.18 0.18,-0.27 l 5.4,-2.34 q 0.18,-0.09 0.36,0.09 0,0.27 -0.18,0.27 l -5.4,2.43 -0.09,0 z m 5.4,4.77 q -0.27,0 -0.27,-0.18 l 0.09,-7.2 q 0,-0.18 0.18,-0.18 0.27,0 0.27,0.18 l -0.09,7.2 q 0,0.18 -0.18,0.18 z m 0,0 -0.18,0 -5.4,-4.86 q -0.18,-0.09 0,-0.27 0.09,-0.09 0.27,0 l 5.4,4.77 q 0.18,0.27 0.09,0.36 l -0.18,0 z m -5.31,3.42 q -0.18,0 -0.18,-0.09 l -4.05,-4.05 q -0.18,-0.09 0,-0.27 0.09,-0.09 0.27,0 l 4.14,4.05 0,0.27 q -0.18,0.09 -0.18,0.09 z m -0.09,0 q -0.18,0 -0.18,-0.27 l -0.09,-8.19 q 0,-0.18 0.18,-0.18 0.27,0 0.27,0.18 l 0.09,8.19 q 0,0.18 -0.27,0.27 z m 0,0 -0.18,-0.18 q 0,-0.18 0.09,-0.27 l 5.31,-3.33 q 0.27,-0.09 0.36,0.09 0.09,0.09 -0.09,0.27 l -5.31,3.33 q -0.09,0 -0.09,0.09 0,0 -0.09,0 z m 5.49,6.66003 q -0.27,0 -0.27,-0.27 l -0.09,-9.99003 q 0,-0.09 0.27,-0.27 0.18,0 0.18,0.27 l 0.09,9.99003 q 0,0.27 -0.18,0.27 z m 0,0 q -0.18,0 -0.18,-0.09 l -5.4,-6.66003 q -0.18,-0.18 0,-0.36 0.27,0 0.36,0.09 l 5.4,6.66003 q 0,0.18 -0.09,0.27 -0.09,0.09 -0.09,0.09 z m -13.5,0.36 q -0.18,0 -0.18,-0.27 l 0,-14.31003 q 0,-0.18 0.18,-0.18 0.27,0 0.27,0.18 l 0,14.31003 q 0,0.27 -0.27,0.27 z m 0,0 0,-0.09 q -0.18,0 -0.18,-0.27 l 3.96,-10.98003 q 0.09,-0.18 0.36,-0.18 0.18,0.18 0.09,0.27 l -3.96,11.07003 q -0.18,0.18 -0.27,0.18 z m 0,0 q -0.18,0 -0.18,-0.18 0,-0.27 0.18,-0.27 l 5.31,-1.17 q 0.09,0 0.27,0.18 0,0.27 -0.18,0.27 l -5.31,1.08 q 0,0.09 -0.09,0.09 z m 5.31,-1.17 q -0.18,0 -0.18,-0.18 l -1.35,-9.90003 q 0,-0.27 0.18,-0.27 0.27,0 0.27,0.18 l 1.35,9.99003 q 0,0.18 -0.18,0.18 l -0.09,0 z m 0,0 -0.09,0 q -0.36,0 -0.09,-0.27 l 2.7,-5.94003 q 0.09,-0.09 0.36,-0.09 0.18,0.18 0.09,0.27 l -2.79,5.94003 q 0,0.09 -0.18,0.09 z m 8.19,0.81 -0.09,0 -8.1,-0.81 q -0.18,0 -0.18,-0.18 0,-0.27 0.18,-0.27 l 8.19,0.81 q 0.18,0 0.18,0.27 0,0.18 -0.18,0.18 z m -13.41,10.62 q -0.27,0 -0.27,-0.27 l 0,-10.26 q 0,-0.18 0.18,-0.18 0.27,0 0.27,0.18 l 0,10.35 q 0,0.18 -0.18,0.18 z m 4.68,0.45 -4.68,-0.45 q -0.27,0 -0.27,-0.27 0.18,-0.18 0.27,-0.18 l 4.68,0.45 q 0.45,0 0.18,0.27 0,0.18 -0.18,0.18 z m 0,0 q -0.18,0 -0.27,-0.09 l -4.68,-10.8 q 0,-0.27 0.09,-0.27 0.18,-0.09 0.36,0.09 l 4.68,10.8 q 0,0.27 -0.09,0.27 l -0.09,0 z m 0,0 q -0.27,0 -0.27,-0.18 l 0.63,-11.88 q 0,-0.27 0.18,-0.27 0.27,0 0.27,0.27 l -0.63,11.88 q 0,0.18 -0.18,0.18 z m 0,0 -0.18,0 q -0.18,-0.18 0,-0.36 l 8.73,-11.07 q 0.18,-0.18 0.27,-0.09 0.18,0.27 0.09,0.36 l -8.73,11.07 q -0.18,0.09 -0.18,0.09 z m 7.65,-4.95 -0.09,0 q -0.18,0 -0.18,-0.27 l 1.08,-6.12 q 0,-0.18 0.27,-0.18 0.18,0 0.18,0.27 l -1.08,6.12 q 0,0.18 -0.18,0.18 z m -7.65,4.95 q -0.18,0 -0.18,-0.09 -0.27,-0.27 0,-0.27 l 7.65,-5.04 q 0.18,-0.09 0.36,0.09 0.27,0.27 -0.09,0.27 l -7.65,5.04 -0.09,0 z m 9.36,3.06 q -0.09,0 -0.18,-0.09 -0.09,0 -0.09,-0.27 l 3.42,-6.03 q 0.18,-0.18 0.27,-0.09 0.36,0 0.09,0.27 l -3.33,6.12 q -0.09,0 -0.09,0.09 0,0 -0.09,0 z m 3.33,-6.12 -0.09,0 -5.04,-1.89 q -0.18,-0.18 -0.18,-0.36 0.18,-0.18 0.36,-0.09 l 5.04,1.98 q 0.18,0 0.18,0.27 -0.09,0.09 -0.27,0.09 z m -3.33,6.12 -0.09,0 -9.36,-3.06 q -0.18,0 -0.18,-0.27 0.18,-0.18 0.27,-0.18 l 9.36,3.06 q 0.18,0 0.18,0.27 0,0.18 -0.18,0.18 z m 0,0 q -0.27,0 -0.27,-0.18 l -1.71,-8.01 q 0,-0.27 0.18,-0.27 0.27,0 0.27,0.18 l 1.71,8.01 q 0,0.18 -0.18,0.27 z m 3.33,-6.12 q -0.18,0 -0.18,-0.18 0,-0.18 0.18,-0.27 l 6.75,-1.26 q 0.27,0 0.27,0.18 0,0.27 -0.18,0.27 l -6.75,1.26 -0.09,0 z m 6.84,-1.26 q -0.27,0 -0.27,-0.18 l 0,-7.56 q 0,-0.18 0.18,-0.18 0.27,0 0.27,0.18 l 0,7.56 q 0,0.18 -0.18,0.18 z m -6.84,1.26 -0.09,0 q -0.27,-0.18 -0.09,-0.36 l 6.75,-8.73 q 0.18,-0.27 0.36,-0.09 0.09,0.09 0,0.36 l -6.75,8.73 q 0,0.09 -0.18,0.09 z m -3.96,-8.01 q -0.27,0 -0.27,-0.27 0,-0.18 0.27,-0.18 l 10.71,-0.72 q 0.27,-0.09 0.27,0.18 0,0.09 -0.18,0.27 l -10.8,0.72 z m -1.08,6.12 q -0.18,-0.09 -0.18,-0.09 -0.09,-0.27 0,-0.36 l 11.88,-6.84 q 0.09,-0.09 0.36,0.09 0,0.27 -0.09,0.27 l -11.88,6.84 q -0.09,0.09 -0.09,0.09 z m 11.79,-6.84 -0.18,-0.18 -3.33,-4.77003 q -0.18,-0.09 0,-0.27 0.27,-0.09 0.36,0.09 l 3.33,4.77003 q 0.09,0.18 0,0.27 -0.09,0 -0.09,0.09 0,0 -0.09,0 z m -10.71,0.72 q -0.18,-0.09 -0.18,-0.09 -0.18,-0.18 0,-0.36 l 7.38,-5.49003 q 0.18,-0.18 0.36,0.09 0.09,0.09 -0.09,0.27 l -7.38,5.49003 q -0.09,0.09 -0.09,0.09 z m 7.38,-5.49003 q -0.18,0 -0.27,-0.27 0,-0.18 0.18,-0.18 l 7.56,-1.17 q 0.27,0 0.27,0.18 0,0.27 -0.18,0.27 l -7.56,1.17 z m 15.03,1.26003 -7.56,-2.43003 q -0.18,-0.18 -0.18,-0.27 0.09,-0.18 0.27,-0.18 l 7.56,2.43003 q 0.18,0 0.18,0.27 -0.18,0.18 -0.27,0.18 z m 6.75,6.57 q -0.09,0 -0.18,-0.09 l -6.66,-6.57 q -0.18,-0.09 0,-0.27 0.09,-0.09 0.27,0 l 6.75,6.57 q 0.09,0.18 0,0.27 -0.09,0.09 -0.18,0.09 z m 3.42,7.47 q -0.09,0 -0.27,-0.18 l -3.33,-7.38 q -0.09,-0.18 0.09,-0.36 0.27,0 0.27,0.18 l 3.42,7.38 q 0,0.27 -0.09,0.36 l -0.09,0 z m 0.9,8.46 q -0.27,0 -0.27,-0.18 l -0.9,-8.46 q 0,-0.27 0.18,-0.27 0.27,0 0.27,0.18 l 0.9,8.55 q 0,0.18 -0.18,0.18 z m -1.89,8.37 q -0.45,0 -0.18,-0.27 l 1.8,-8.37 q 0,-0.18 0.27,-0.18 0.18,0.18 0.18,0.27 l -1.8,8.37 q -0.18,0.18 -0.27,0.18 z m -5.04,7.74 -0.18,0 q -0.18,-0.18 0,-0.36 l 5.04,-7.74 q 0.09,-0.09 0.36,0 0.27,0 0,0.27 l -5.04,7.74 q -0.09,0.09 -0.18,0.09 z m -6.39,4.5 q -0.18,0 -0.18,-0.09 -0.18,-0.18 0,-0.36 l 6.39,-4.41 q 0.18,-0.18 0.36,0 0.09,0.18 -0.09,0.36 l -6.39,4.5 -0.09,0 z m -6.03,1.17 q -0.09,0 -0.27,-0.18 0,-0.27 0.18,-0.27 l 6.03,-1.17 q 0.27,0 0.27,0.18 0.27,0.27 -0.18,0.27 l -6.03,1.17 z m 0,0 -0.09,0 -5.67,-1.17 q -0.18,0 -0.18,-0.27 0.18,-0.18 0.27,-0.18 l 5.67,1.17 q 0.18,0 0.18,0.27 0,0.18 -0.18,0.18 z m -5.67,-1.17 -0.18,0 -4.77,-3.24 q -0.27,0 0,-0.27 0,-0.36 0.27,-0.09 l 4.77,3.15 q 0.18,0.27 0.09,0.36 -0.18,0.09 -0.18,0.09 z m -4.77,-3.15 q -0.18,0 -0.18,-0.09 l -3.78,-3.78 q -0.18,-0.18 0,-0.36 0.09,-0.09 0.27,0 l 3.78,3.78 q 0.18,0.18 0,0.36 -0.09,0.09 -0.09,0.09 z m -3.87,3.51 q -0.18,0 -0.18,-0.27 l 0,-7.29 q 0,-0.18 0.18,-0.18 0.27,0 0.27,0.18 l 0,7.29 q 0,0.27 -0.27,0.27 z m -7.29,0 q -0.18,0 -0.18,-0.18 0,-0.27 0.18,-0.27 l 7.29,0 q 0.27,0 0.27,0.18 0,0.27 -0.27,0.27 l -7.29,0 z m 0,0 -5.94,0 q -0.27,0 -0.27,-0.27 0,-0.18 0.27,-0.18 l 5.94,0 q 0.18,0 0.18,0.27 0,0.18 -0.18,0.18 z m -5.94,0 q -0.27,0 -0.27,-0.18 l 0,-7.38 q 0,-0.18 0.18,-0.18 0.27,0 0.27,0.18 l 0,7.38 q 0,0.18 -0.18,0.18 z m -0.09,-7.29 q -0.18,0 -0.18,-0.27 l 0,-9.45 q 0,-0.18 0.27,-0.18 0.18,0 0.18,0.18 l 0,9.54 q 0,0.18 -0.27,0.18 z m 0.09,-9.45 q -0.27,0 -0.27,-0.27 l 0,-11.79 q 0,-0.27 0.27,-0.27 0.18,0 0.18,0.27 l 0,11.79 q 0,0.27 -0.18,0.27 z m 0,0 -0.09,0 q -0.18,-0.09 -0.18,-0.36 l 4.68,-11.34 q 0.18,-0.18 0.36,-0.18 0.09,0.09 0.09,0.36 l -4.68,11.34 q 0,0.18 -0.18,0.18 z m 4.95,4.14 -0.18,0 -4.95,-4.23 q -0.18,-0.09 0,-0.27 0.18,-0.18 0.27,-0.09 l 5.04,4.23 q 0.09,0.18 0,0.27 -0.09,0.09 -0.18,0.09 z m 0,0 -0.09,0 q -0.36,0 -0.09,-0.27 l 3.42,-7.56 q 0.18,-0.18 0.36,-0.09 0.36,0 0.09,0.27 l -3.51,7.56 q 0,0.09 -0.18,0.09 z m -4.95,-4.14 q -0.09,0 -0.27,-0.18 0,-0.27 0.18,-0.27 l 8.46,-3.33 q 0.27,-0.27 0.27,0.09 0.27,0.27 -0.09,0.27 l -8.46,3.42 -0.09,0 z m 8.46,-3.42 -0.18,0 q -0.18,-0.18 0,-0.36 l 5.58,-5.04 q 0.27,0 0.36,0.09 0,0.18 -0.09,0.27 l -5.58,5.04 -0.09,0 z m 0,0 q -0.18,0 -0.27,-0.09 l -3.78,-8.01 q 0,-0.27 0.18,-0.27 0.18,-0.18 0.27,0.09 l 3.78,8.01 q 0.27,0.27 -0.09,0.27 l -0.09,0 z m -8.55,14.76 q -0.09,0 -0.09,-0.09 -0.09,0 -0.09,-0.27 l 5.04,-7.2 q 0.09,-0.09 0.27,0 0.27,0.09 0.09,0.27 l -5.04,7.2 q -0.09,0.09 -0.18,0.09 z m 6.03,5.4 -0.09,0 -6.03,-5.49 q -0.18,-0.09 0,-0.27 0.09,-0.09 0.27,-0.09 l 6.03,5.49 q 0.09,0.18 0,0.27 0,0.09 -0.18,0.09 z m 0,0 q -0.18,0 -0.18,-0.27 l 1.08,-6.12 q 0,-0.18 0.27,-0.18 0.18,0 0.18,0.27 l -1.08,6.12 q -0.18,0.18 -0.27,0.18 z m -6.03,-5.4 q -0.09,0 -0.27,-0.18 0,-0.27 0.27,-0.27 l 7.11,-0.72 q 0.27,0 0.27,0.18 0,0.27 -0.18,0.27 l -7.2,0.72 z m 7.2,-0.72 q -0.09,0 -0.27,-0.18 l -2.07,-6.39 q -0.09,-0.18 0.09,-0.36 0.27,0 0.27,0.18 l 2.16,6.48 q 0,0.18 -0.18,0.27 z m 0,0 q -0.27,0 -0.27,-0.18 0,-0.27 0.18,-0.27 l 6.21,-1.17 q 0.27,-0.27 0.27,0.18 0,0.09 -0.18,0.27 l -6.21,1.17 z m 6.12,6.12 -0.09,-0.09 -6.21,-6.12 q -0.18,-0.09 0,-0.27 0.09,-0.09 0.27,0 l 6.21,6.03 q 0.18,0.18 0,0.36 -0.09,0.09 -0.18,0.09 z m 0,-7.29 q 0,-0.09 -0.09,-0.09 l -8.28,-5.22 q -0.18,-0.09 -0.09,-0.36 0.09,-0.09 0.27,0 l 8.37,5.22 q 0.09,0.09 0.09,0.27 -0.18,0.18 -0.27,0.18 z m 0,0 q -0.18,0 -0.18,-0.18 l -4.86,-12.78 q 0,-0.27 0.18,-0.27 0.27,-0.27 0.27,0.09 l 4.86,12.78 q 0,0.27 -0.18,0.27 0,0.09 -0.09,0.09 z m 1.44,-9.45 q -0.18,0 -0.18,-0.27 l -0.72,-8.28 q 0,-0.27 0.18,-0.27 0.27,0 0.27,0.18 l 0.72,8.37 q 0,0.27 -0.27,0.27 z m 0,0 q -0.09,0 -0.09,-0.09 l -6.21,-3.33 q -0.27,-0.09 -0.09,-0.27 0,-0.36 0.27,-0.09 l 6.21,3.33 q 0.27,0.09 0.09,0.27 0,0.18 -0.18,0.18 z m 5.22,4.68 -0.18,0 -5.13,-4.77 q -0.27,-0.09 -0.09,-0.27 0.09,-0.09 0.36,-0.09 l 5.22,4.77 q 0.09,0.18 0,0.27 -0.09,0.09 -0.18,0.09 z m -6.66,4.77 q -0.09,-0.09 -0.18,-0.09 0,-0.27 0.09,-0.36 l 6.66,-4.68 q 0.09,-0.09 0.27,0 0.18,0.18 0,0.36 l -6.66,4.68 q -0.09,0 -0.09,0.09 0,0 -0.09,0 z m 0,0 q -0.18,-0.18 -0.18,-0.27 l 1.44,-9.45 q 0,-0.18 0.27,-0.18 0.18,0 0.18,0.27 l -1.44,9.36 q 0,0.27 -0.27,0.27 z m 6.66,-4.77 q -0.27,0 -0.27,-0.18 0,-0.27 0.27,-0.27 l 7.02,0 q 0.18,0 0.18,0.27 0,0.18 -0.18,0.18 l -7.02,0 z m 9.81,-17.28 q 0,-0.09 -0.09,-0.09 l -5.58,-3.06 q -0.09,-0.09 -0.09,-0.27 0.18,-0.18 0.36,-0.09 l 5.58,3.06 q 0.09,0 0.09,0.27 -0.18,0.18 -0.27,0.18 z m 2.7,5.76 q -0.18,0 -0.18,-0.09 l -2.7,-5.85 q 0,-0.27 0.09,-0.27 0.18,-0.09 0.36,0.09 l 2.7,5.85 q 0,0.18 -0.18,0.27 l -0.09,0 z m -0.27,6.84 -0.09,0 q -0.18,0 -0.18,-0.27 l 0.36,-6.75 q 0,-0.27 0.18,-0.27 0.27,0 0.27,0.27 l -0.36,6.75 q 0,0.27 -0.18,0.27 z m -5.22,4.68 q -0.09,0 -0.18,-0.09 -0.18,-0.09 0,-0.27 l 5.22,-4.77 q 0.18,0 0.27,0.09 0.09,0.18 0,0.27 l -5.13,4.68 q -0.09,0.09 -0.18,0.09 z m -2.79,-27.9 -0.09,-0.09 q -0.09,-0.09 -0.09,-0.27 l 4.23,-5.94003 q 0,-0.36 0.27,-0.09 0.09,0.09 0.09,0.36 l -4.23,5.85003 q 0,0.18 -0.18,0.18 z m 0,0 q -0.18,0 -0.18,-0.18 0,-0.27 0.18,-0.27 l 11.7,-3.51 q 0.18,0 0.27,0.18 0,0.09 -0.18,0.27 l -11.7,3.42 q 0,0.09 -0.09,0.09 z m 8.73,4.32 q -0.27,0 -0.27,-0.18 0,-0.09 0.18,-0.27 l 9.81,-1.26 q 0.18,0 0.18,0.18 0.09,0.27 -0.18,0.27 l -9.72,1.26 z m 0,0 -0.09,0 q -0.18,0 -0.18,-0.27 l 3.06,-7.83 q 0.09,-0.18 0.27,-0.18 0.18,0.09 0.18,0.27 l -3.06,7.92 q 0,0.09 -0.18,0.09 z m 0,0 -0.09,0 -8.73,-4.41 q -0.09,0 -0.09,-0.27 0.18,-0.18 0.36,-0.09 l 8.64,4.41 q 0.36,0 0.09,0.27 0,0.09 -0.18,0.09 z m -8.64,3.15 q -0.18,0 -0.27,-0.09 0,-0.27 0.18,-0.27 l 8.64,-3.24 q 0.27,0 0.27,0.18 0.27,0.27 -0.09,0.27 l -8.73,3.15 z m 5.49,3.15 q 0,-0.09 -0.09,-0.09 -0.09,0 -0.09,-0.27 l 3.06,-6.21 q 0.18,-0.27 0.36,-0.09 0.36,0 0.09,0.27 l -3.06,6.21 q -0.18,0.18 -0.27,0.18 z m 7.83,2.43 -0.09,0 -7.74,-2.52 q -0.18,0 -0.18,-0.27 0.18,-0.18 0.27,-0.09 l 7.74,2.52 q 0.18,0 0.18,0.27 0,0.09 -0.18,0.09 z m 0,0 q -0.18,0 -0.27,-0.09 l -4.59,-8.73 q -0.27,-0.27 0.09,-0.27 0.18,-0.18 0.27,0.09 l 4.68,8.73 q 0.09,0.09 -0.09,0.27 l -0.09,0 z m 0,0 -0.09,0 q -0.18,0 -0.18,-0.27 l 5.13,-9.99 q 0,-0.18 0.27,-0.18 0.18,0.27 0.09,0.36 l -5.04,9.99 q -0.09,0.09 -0.18,0.09 z m 0,0 q -0.18,0 -0.27,-0.09 0,-0.27 0.18,-0.27 l 8.46,-2.61 q 0.27,0 0.27,0.18 0,0.18 -0.18,0.27 l -8.46,2.52 z m 0,6.75 q -0.18,0 -0.18,-0.18 l -0.09,-6.75 q 0,-0.27 0.27,-0.27 0.18,0 0.18,0.27 l 0.09,6.66 q 0,0.27 -0.27,0.27 z m 0,0 q -0.09,0 -0.09,-0.09 -0.18,-0.09 0,-0.27 l 8.37,-9.27 q 0.09,-0.09 0.27,-0.09 0.18,0.18 0,0.36 l -8.37,9.27 q 0,0.09 -0.18,0.09 z m 0,0 q -0.18,0 -0.18,-0.18 0,-0.27 0.18,-0.27 l 9.18,-1.62 q 0.27,-0.27 0.27,0.18 0,0.09 -0.18,0.27 l -9.18,1.62 -0.09,0 z m -5.13,-3.42 q -0.09,0 -0.18,-0.09 -0.27,-0.27 0.09,-0.27 l 5.04,-3.33 q 0.18,-0.18 0.36,0.09 0,0.18 -0.09,0.27 l -5.04,3.33 -0.18,0 z m 5.13,3.42 -0.09,0 -5.13,-3.42 q -0.27,-0.18 -0.09,-0.36 0.18,-0.18 0.36,0 l 5.13,3.33 q 0.09,0.09 0.09,0.36 -0.09,0.09 -0.27,0.09 z m -5.4,3.42 q -0.09,0 -0.18,0 0,-0.09 -0.09,-0.09 0,-0.27 0.09,-0.36 l 5.49,-3.42 q 0.27,0 0.36,0.09 0,0.27 -0.09,0.36 l -5.49,3.33 -0.09,0.09 z m 1.53,9.45 q -0.09,0 -0.09,0 0,-0.09 -0.09,-0.09 l -6.66,-4.68 q -0.27,-0.18 -0.09,-0.36 0.09,-0.09 0.27,0 l 6.75,4.68 q 0.09,0.09 0.09,0.27 l -0.18,0.18 z m 0,0 q -0.27,0 -0.27,-0.27 l -1.53,-9.36 q 0,-0.27 0.18,-0.27 0.27,0 0.27,0.18 l 1.53,9.45 q 0,0.09 -0.18,0.27 z m 11.34,-5.31 -0.09,0 -12.87,-4.14 q -0.18,-0.09 -0.18,-0.27 0.18,-0.27 0.27,-0.18 l 12.96,4.14 q 0.18,0.18 0.18,0.27 -0.09,0.18 -0.27,0.18 z m -11.34,5.31 q -0.09,0 -0.27,-0.18 0,-0.27 0.18,-0.27 l 11.34,-5.31 q 0.27,0 0.27,0.18 0.18,0.18 -0.09,0.27 l -11.34,5.22 q -0.09,0.09 -0.09,0.09 z m 11.34,-5.31 q -0.09,0 -0.18,-0.09 l -7.38,-7.56 q -0.18,-0.09 0,-0.27 0.09,-0.09 0.27,0 l 7.47,7.56 q 0.09,0.18 0,0.27 -0.09,0.09 -0.18,0.09 z m -11.43,12.24 q -0.27,0 -0.27,-0.18 l 0.09,-7.02 q 0,-0.18 0.27,-0.18 0.18,0 0.18,0.18 l -0.09,7.02 q 0,0.18 -0.18,0.18 z m 6.39,-4.5 -0.09,0 -6.3,-2.52 q -0.18,0 -0.18,-0.27 0.18,-0.18 0.27,-0.09 l 6.39,2.43 q 0.18,0.18 0.09,0.27 0,0.18 -0.18,0.18 z m -22.86,1.35 -0.09,0 q -0.18,-0.18 -0.18,-0.36 l 2.88,-8.46 q 0,-0.18 0.27,-0.18 0.18,0.18 0.18,0.27 l -2.88,8.55 q 0,0.18 -0.18,0.18 z m 7.47,-2.88 q -0.18,0 -0.18,-0.09 l -4.68,-5.67 q -0.18,-0.18 0.09,-0.27 0.09,-0.09 0.27,0 l 4.68,5.67 q 0.09,0.18 -0.09,0.36 l -0.09,0 z m -7.47,2.88 q -0.09,0 -0.27,-0.18 0,-0.27 0.18,-0.27 l 7.47,-2.88 q 0.27,0 0.27,0.18 0.27,0.27 -0.09,0.27 l -7.47,2.88 -0.09,0 z m 7.47,-2.88 -0.09,0 q -0.18,-0.18 -0.18,-0.27 l 2.43,-5.67 q 0,-0.18 0.27,-0.18 0.18,0.18 0.09,0.36 l -2.34,5.67 q 0,0.09 -0.18,0.09 z m 9,6.03 -0.18,0 -9,-6.03 q -0.18,-0.18 0,-0.36 0,-0.27 0.27,0 l 9,5.94 q 0.18,0.27 0.09,0.36 -0.09,0.09 -0.18,0.09 z m -9,-6.03 q -0.27,0 -0.27,-0.18 0,-0.27 0.18,-0.27 l 9.09,-0.9 q 0.27,-0.09 0.27,0.18 0,0.09 -0.18,0.27 l -9.09,0.9 z m 2.97,7.2 q -0.09,0 -0.18,-0.09 0,0 -0.09,0 l -2.97,-7.2 q 0,-0.18 0.18,-0.36 0.27,0 0.27,0.18 l 2.97,7.2 q 0.09,0.09 -0.09,0.27 l -0.09,0 z"
           inkscape:connector-curvature="0" />
      </g>
    </g>
    <path
       style="opacity:0;fill:#00ffff;fill-opacity:1;fill-rule:nonzero;stroke:#008080;stroke-width:0.17857143;stroke-miterlimit:4;stroke-dasharray:none;stroke-opacity:1"
       d="m 69.378879,55.33241 0,-2.513085 2.895001,1.449632 2.895002,1.449632 -2.49685,0.937085 c -1.373267,0.515397 -2.676018,0.993951 -2.895001,1.063453 l -0.398152,0.126369 0,-2.513086 z"
       id="path4181"
       inkscape:connector-curvature="0"
       transform="translate(0,952.3622)" />
    <path
       style="opacity:0;fill:#00ffff;fill-opacity:1;fill-rule:nonzero;stroke:#008080;stroke-width:0.17857143;stroke-miterlimit:4;stroke-dasharray:none;stroke-opacity:1"
       d="m 69.378879,55.33241 0,-2.513085 2.895001,1.449632 2.895002,1.449632 -2.49685,0.937085 c -1.373267,0.515397 -2.676018,0.993951 -2.895001,1.063453 l -0.398152,0.126369 0,-2.513086 z"
       id="path4183"
       inkscape:connector-curvature="0"
       transform="translate(0,952.3622)" />
    <path
       style="opacity:0;fill:#00ffff;fill-opacity:1;fill-rule:nonzero;stroke:#008080;stroke-width:0.17857143;stroke-miterlimit:4;stroke-dasharray:none;stroke-opacity:1"
       d="m 73.802622,53.208887 c -1.446405,-0.753281 -2.60708,-1.44338 -2.579278,-1.533553 0.04445,-0.144167 7.45549,-2.427939 7.578681,-2.335433 0.132652,0.09961 -2.004157,5.265211 -2.172927,5.252914 -0.108156,-0.0079 -1.38007,-0.630648 -2.826476,-1.383928 z"
       id="path4185"
       inkscape:connector-curvature="0"
       transform="translate(0,952.3622)" />
  </g>
</svg>
